<?xml version="1.0" encoding="UTF-8"?>
<svg version="1.1" xmlns="http://www.w3.org/2000/svg" width="393" height="495">
<path d="M0 0 C5.445 0.495 5.445 0.495 11 1 C11 1.33 11 1.66 11 2 C109.01 2.495 109.01 2.495 209 3 C209 3.66 209 4.32 209 5 C210.00160156 4.97035156 211.00320313 4.94070312 212.03515625 4.91015625 C216.03167414 5.00071774 219.5367472 5.5891573 223.4375 6.4375 C229.20409392 7.68035191 229.20409392 7.68035191 235.0625 8.3125 C243.1709802 9.72826638 251.28885943 13.01149719 257 19 C258.60956107 19.45987459 260.22227935 19.91267723 261.8515625 20.296875 C266.5273101 21.82711967 270.75010598 24.55611881 275 27 C275 27.66 275 28.32 275 29 C276.32 29.33 277.64 29.66 279 30 C279 30.66 279 31.32 279 32 C279.66 32 280.32 32 281 32 C282.03789581 33.64333504 283.03567924 35.31243867 284 37 C285.81405348 39.0410142 285.81405348 39.0410142 287.8515625 39.8671875 C294.4513248 43.34706217 299.47481162 50.32882208 303.734375 56.30859375 C305.01780555 58.13512372 305.01780555 58.13512372 307.0625 59.875 C310.73752497 63.90567255 313.86569881 69.31024552 314.140625 74.81640625 C314.09421875 75.53699219 314.0478125 76.25757812 314 77 C314.99 77.33 315.98 77.66 317 78 C317.12375 79.03125 317.2475 80.0625 317.375 81.125 C317.93889814 84.62116846 318.78682059 87.68397627 320 91 C320.66 91 321.32 91 322 91 C322.677219 93.51840815 323.34191174 96.03908724 324 98.5625 C324.19078125 99.26697266 324.3815625 99.97144531 324.578125 100.69726562 C325.74886677 105.23389 326.19455742 109.27590259 326 114 C326 114.33 326 114.66 326 115 C326.33 115 326.66 115 327 115 C327.87648324 124.99664672 328.30338938 134.12017284 326 144 C325.34 144 324.68 144 324 144 C323.83395264 144.55872803 323.66790527 145.11745605 323.49682617 145.69311523 C322.72856708 148.27503073 321.95804486 150.85626579 321.1875 153.4375 C320.79594727 154.75524414 320.79594727 154.75524414 320.39648438 156.09960938 C315.31416864 173.10340648 315.31416864 173.10340648 311 180 C310.57203125 180.72960937 310.1440625 181.45921875 309.703125 182.2109375 C309.26484375 182.94570312 308.8265625 183.68046875 308.375 184.4375 C307.97023438 185.11683594 307.56546875 185.79617187 307.1484375 186.49609375 C306.76945312 186.99238281 306.39046875 187.48867187 306 188 C305.34 188 304.68 188 304 188 C304 188.66 304 189.32 304 190 C303.34 190 302.68 190 302 190 C301.75636719 190.57878906 301.51273437 191.15757812 301.26171875 191.75390625 C297.65978586 198.16601588 290.07449587 203.03298229 284 207 C283.34 207 282.68 207 282 207 C281.67 208.65 281.34 210.3 281 212 C279.4221875 212.433125 279.4221875 212.433125 277.8125 212.875 C274.16854464 213.87710171 274.16854464 213.87710171 271.4375 215.0625 C268.63484431 216.1404445 265.96295437 216.5259273 263 217 C261.845 217.33 260.69 217.66 259.5 218 C256.33045853 218.90558328 253.25748577 219.52329477 250 220 C250 219.34 250 218.68 250 218 C248.515 218.99 248.515 218.99 247 220 C244.44158286 220.11693991 241.98894295 220.14215716 239.4375 220.0625 C234.57665288 219.73429477 234.57665288 219.73429477 230 221 C230 220.34 230 219.68 230 219 C228.515 219.99 228.515 219.99 227 221 C227.33 221.66 227.66 222.32 228 223 C226.741875 223.04125 225.48375 223.0825 224.1875 223.125 C223.47980469 223.14820313 222.77210938 223.17140625 222.04296875 223.1953125 C220 223 220 223 217 221 C217 221.66 217 222.32 217 223 C213.535 223.99 213.535 223.99 210 225 C210 225.33 210 225.66 210 226 C207.45947886 226.36508677 204.9182372 226.71731457 202.375 227.0625 C201.66214844 227.16626953 200.94929687 227.27003906 200.21484375 227.37695312 C195.86172004 227.95603839 192.35317955 227.81063607 188 227 C187.01 227.33 186.02 227.66 185 228 C183.16015625 226.93359375 183.16015625 226.93359375 181.0625 225.4375 C175.9917149 222.46099037 172.51497514 222.94111664 166.90625 224.1875 C163.66823295 225.09275208 160.5126201 226.14228094 157.34375 227.26171875 C149.12408904 229.85091195 142.26379147 230.47913744 134 228 C134 227.34 134 226.68 134 226 C132.68 226 131.36 226 130 226 C129.34 225.34 128.68 224.68 128 224 C125.11785113 224.88214887 125.11785113 224.88214887 123 226 C123 225.34 123 224.68 123 224 C122.34 224.33 121.68 224.66 121 225 C121 225.99 121 226.98 121 228 C119.68 227.67 118.36 227.34 117 227 C116.67 227.66 116.34 228.32 116 229 C115.0925 228.9175 114.185 228.835 113.25 228.75 C109.99773559 228.73959318 109.99773559 228.73959318 107.6875 230.5 C105.37088438 233.93202314 105.31481122 236.95716123 105 241 C104.69830934 242.34084736 104.38482319 243.6806062 104 245 C102.88625 245.268125 101.7725 245.53625 100.625 245.8125 C96.78159049 246.65809019 96.78159049 246.65809019 95 250 C94.97250522 252.06910593 94.97250522 252.06910593 95.375 254.1875 C95.58125 255.445625 95.7875 256.70375 96 258 C95.01 258 94.02 258 93 258 C91.64338365 262.82604888 91.62774257 267.64312032 91.4375 272.62890625 C91.3950415 273.72159317 91.35258301 274.81428009 91.30883789 275.94007874 C90.79042606 290.93484101 90.92961582 305.93656099 91 320.9375 C91.24186481 372.80469644 91.24186481 372.80469644 86 381 C85.46375 381.845625 84.9275 382.69125 84.375 383.5625 C83.92125 384.036875 83.4675 384.51125 83 385 C82.34 385 81.68 385 81 385 C81 385.66 81 386.32 81 387 C76.14938823 390.06875439 72.78893397 391.40114476 67 392 C65.41207593 392.26553914 63.82851188 392.55827593 62.25 392.875 C61.51265625 393.01679688 60.7753125 393.15859375 60.015625 393.3046875 C57.66619527 394.11514969 56.70440987 395.23127278 55 397 C51.09537884 398.34886913 48.14770148 399 44 399 C43.67 399.66 43.34 400.32 43 401 C39.61460532 401.8660312 37.25817243 402.05062204 33.8125 401.375 C32.884375 401.25125 31.95625 401.1275 31 401 C29.22809091 402.35444301 29.22809091 402.35444301 28 404 C27.34 404 26.68 404 26 404 C25.67 403.67 25.34 403.34 25 403 C24.34 403.66 23.68 404.32 23 405 C21.06629402 405 19.13212743 404.99302341 17.19921875 404.9375 C14.40814678 405.01681999 11.90393686 405.79693805 9.23046875 406.5546875 C4.8734406 407.42456703 0.42191584 407.14631339 -4 407 C-4 406.34 -4 405.68 -4 405 C-4.66 404.67 -5.32 404.34 -6 404 C-7.20785348 400.69825294 -7.13082314 397.43670315 -7.14044189 393.95175171 C-7.14615204 392.71226273 -7.15186218 391.47277374 -7.15774536 390.19572449 C-7.15899059 388.82498179 -7.16011571 387.45423898 -7.16113281 386.08349609 C-7.16576272 384.63789239 -7.17078761 383.19228991 -7.17617798 381.74668884 C-7.18928128 377.82336328 -7.19574207 373.90005481 -7.20018864 369.9767108 C-7.20312072 367.52700921 -7.20722564 365.0773123 -7.21169281 362.62761307 C-7.22535791 354.96670948 -7.23503125 347.30581656 -7.2388947 339.64490163 C-7.24338305 330.79343533 -7.26097088 321.94212287 -7.2898953 313.09070337 C-7.3114712 306.25157902 -7.32159667 299.4124981 -7.32293582 292.57334006 C-7.32398615 288.48649977 -7.32994281 284.39980428 -7.34775543 280.31299973 C-7.36416715 276.47327371 -7.36642559 272.6338025 -7.35761642 268.79405403 C-7.35684251 267.38228361 -7.36123509 265.97049985 -7.37107468 264.5587635 C-7.38368571 262.63731035 -7.37616552 260.71575597 -7.36749268 258.79428101 C-7.36895924 257.71729132 -7.3704258 256.64030163 -7.3719368 255.53067589 C-7.24919765 254.69555285 -7.12645851 253.8604298 -7 253 C-3.35581659 250.57054439 -2.07076636 250.9171219 2.1875 251.375 C3.27417969 251.48585938 4.36085937 251.59671875 5.48046875 251.7109375 C6.31191406 251.80632812 7.14335938 251.90171875 8 252 C8.33 251.01 8.66 250.02 9 249 C13.67942193 245.98101811 18.77957176 247.24988021 24 248 C24.33 247.34 24.66 246.68 25 246 C27.67259973 245.25517713 30.29694119 244.59677922 33 244 C34.33427682 243.67046358 35.66790839 243.33826147 37 243 C36.68417969 242.43539062 36.36835937 241.87078125 36.04296875 241.2890625 C34.9499262 238.89010021 34.57896064 236.98718795 34.3125 234.375 C34.18294922 233.21097656 34.18294922 233.21097656 34.05078125 232.0234375 C34 230 34 230 35 228 C29.05144709 227.50428726 25.16583338 228.08289368 19.953125 230.9765625 C11.91755078 235.18720339 2.1665521 235.12899667 -6.375 232.625 C-11.07433782 231.04120419 -15.59253577 229.27972288 -20 227 C-20.66 226.67 -21.32 226.34 -22 226 C-22.33 225.01 -22.66 224.02 -23 223 C-24.1446875 221.8553125 -24.1446875 221.8553125 -25.3125 220.6875 C-32.3618734 213.6381266 -34.41027565 205.98902327 -35.09375 196.26171875 C-34.84519473 187.61406673 -31.7304789 179.44678876 -26 173 C-24.67092966 172.32487463 -23.33740746 171.6584554 -22 171 C-20.93247257 170.0705607 -19.89106807 169.11043285 -18.875 168.125 C-11.4700864 161.69483086 -2.62819287 159.89784411 7 160 C17.73151952 160.8916396 26.15516429 165.38318873 33.30859375 173.328125 C34.99880328 175.24516333 34.99880328 175.24516333 38 176 C39.3515625 178.1796875 39.3515625 178.1796875 40.625 180.875 C41.05039063 181.75929687 41.47578125 182.64359375 41.9140625 183.5546875 C43.87114842 187.96165076 44.1347118 191.31765914 44.125 196.125 C44.12318726 197.12998535 44.12318726 197.12998535 44.12133789 198.15527344 C44.09205678 201.89064206 43.90824712 205.54515903 43.4375 209.25 C42.73994264 212.92654702 42.73994264 212.92654702 44 216 C44.66 216 45.32 216 46 216 C46 216.66 46 217.32 46 218 C46.66 218 47.32 218 48 218 C49.81975482 223.12839994 47.8599099 227.17684382 46 232 C52.88974044 227.34476997 54.24689457 220.68669305 56 213 C56.66 213 57.32 213 58 213 C57.51104248 212.15066895 57.51104248 212.15066895 57.01220703 211.28417969 C55.90272686 208.78049023 55.76792675 207.17342082 55.8046875 204.453125 C55.81113281 203.60878906 55.81757812 202.76445312 55.82421875 201.89453125 C55.84935547 200.58548828 55.84935547 200.58548828 55.875 199.25 C55.88402344 198.36183594 55.89304687 197.47367188 55.90234375 196.55859375 C55.92585423 194.37211942 55.95871501 192.18619906 56 190 C55.01 190 54.02 190 53 190 C53.48662294 187.37223611 54.11969601 185.82045598 55.625 183.5625 C57.19539312 181.14476813 57.19539312 181.14476813 56.9375 178.6875 C55.32675411 174.07002845 53.4869565 169.4869565 50 166 C49.360625 165.855625 48.72125 165.71125 48.0625 165.5625 C45.4426073 164.84798381 44.61032045 164.19589152 43 162 C41.07274885 156.82685218 40.46475925 152.44161432 41 147 C43.43689521 143.80682696 46.40146484 141.79926758 50 140 C50.90725434 137.88672575 50.90725434 137.88672575 51.625 135.4375 C52.01558594 134.19806641 52.01558594 134.19806641 52.4140625 132.93359375 C52.70410156 131.97646484 52.70410156 131.97646484 53 131 C53.99 131 54.98 131 56 131 C56.33 130.01 56.66 129.02 57 128 C67.50758307 117.49241693 82.97523724 116.75137394 96.90917969 116.69645691 C98.54362003 116.69671817 100.17806039 116.69765442 101.8125 116.69921875 C103.51595157 116.69532476 105.21940218 116.69098865 106.92285156 116.68623352 C110.46959608 116.67881863 114.01624091 116.67903107 117.56298828 116.68432617 C122.11044167 116.69016031 126.65749297 116.67307283 131.20487976 116.6499815 C134.7118366 116.63527792 138.21869529 116.63436704 141.72567749 116.63749123 C143.40344041 116.63697781 145.08120879 116.6317362 146.75894165 116.62167931 C149.09477449 116.60937722 151.42980555 116.61606471 153.765625 116.62768555 C154.45756454 116.62004181 155.14950409 116.61239807 155.8624115 116.60452271 C158.64531685 116.63520914 160.54930687 116.68973466 162.87792969 118.2928009 C164.64380386 120.97952985 165.2408908 123.9051702 166 127 C166.66 127 167.32 127 168 127 C169.33203125 129.046875 169.33203125 129.046875 170.8125 131.75 C173.13709853 135.76162514 175.14948508 138.3342589 179 141 C183.77603787 145.44282593 183.77603787 145.44282593 184.80078125 147.9921875 C187.68897498 152.82779524 195.37394394 154.15900246 200.48828125 155.796875 C210.20432581 158.21363902 220.5509423 156.9596535 230 154 C230 153.34 230 152.68 230 152 C230.88042969 151.54109375 231.76085937 151.0821875 232.66796875 150.609375 C233.82941406 149.99578125 234.99085938 149.3821875 236.1875 148.75 C237.33605469 148.14671875 238.48460937 147.5434375 239.66796875 146.921875 C245.5888175 143.79981706 245.5888175 143.79981706 248.77734375 138.30078125 C249.32141147 128.96187486 249.32141147 128.96187486 247 120 C246.01 119.34 245.02 118.68 244 118 C243.608125 119.093125 243.21625 120.18625 242.8125 121.3125 C241.2622873 124.96394888 239.58006503 126.20996749 236 128 C234.24850835 129.58245275 234.24850835 129.58245275 233 131 C233.66 131 234.32 131 235 131 C235 131.66 235 132.32 235 133 C234.28972656 133.26554688 233.57945312 133.53109375 232.84765625 133.8046875 C231.92855469 134.15789062 231.00945312 134.51109375 230.0625 134.875 C229.14597656 135.22304687 228.22945313 135.57109375 227.28515625 135.9296875 C224.85058944 136.7819086 224.85058944 136.7819086 224 139 C222.35 138.67 220.7 138.34 219 138 C218.67 139.65 218.34 141.3 218 143 C216.02 142.67 214.04 142.34 212 142 C212 141.34 212 140.68 212 140 C209.03 139.34 206.06 138.68 203 138 C203 137.34 203 136.68 203 136 C196.52748267 132.53795585 192.11724933 131.50163172 185 133 C180.06696429 127.8203125 180.06696429 127.8203125 179.75 123.9375 C179.8325 122.968125 179.915 121.99875 180 121 C179.708776 119.32546201 179.38929201 117.65449105 179 116 C178.01 116.495 178.01 116.495 177 117 C176.66089006 114.95928485 176.32897296 112.91737379 176 110.875 C175.814375 109.73804688 175.62875 108.60109375 175.4375 107.4296875 C175 104 175 104 175.125 100.75 C175.26636182 98.00661381 175.26636182 98.00661381 173.6875 96.3203125 C173.130625 95.92585938 172.57375 95.53140625 172 95.125 C171.01 94.42375 170.02 93.7225 169 93 C168.34 93.66 167.68 94.32 167 95 C166.01 94.67 165.02 94.34 164 94 C163.67 94.99 163.34 95.98 163 97 C162.19677811 97.00808685 161.39355621 97.01617371 160.56599426 97.02450562 C152.98859511 97.10251441 145.41138678 97.18982393 137.83421803 97.28752708 C133.93891255 97.33742813 130.04363338 97.38375855 126.14819336 97.421875 C122.38739613 97.45880627 118.62682232 97.50518718 114.86621666 97.55806351 C113.43297948 97.57656588 111.99969449 97.59168914 110.56638527 97.60334396 C108.55563548 97.62027694 106.54501043 97.65044472 104.53442383 97.68115234 C103.39080887 97.69447601 102.24719391 97.70779968 101.06892395 97.7215271 C98.00219298 97.99980101 95.77406506 98.70014081 93 100 C92.67 99.34 92.34 98.68 92 98 C89.64551325 97.94545591 87.29232125 97.9060721 84.9375 97.875 C83.62652344 97.85179687 82.31554687 97.82859375 80.96484375 97.8046875 C76.9781137 98.00107814 73.79058596 98.80039103 70 100 C68.31656795 100.33372001 66.62921226 100.64867108 64.9375 100.9375 C60.86973057 101.71525258 57.65043092 103.0009545 54 105 C52.9171875 105.2165625 52.9171875 105.2165625 51.8125 105.4375 C49.26408369 106.22838782 48.5079856 107.8751112 47 110 C46.34 110 45.68 110 45 110 C44.74347656 110.5775 44.48695312 111.155 44.22265625 111.75 C42.47922488 114.95835933 40.04658692 117.35165799 37.55859375 120 C35.95680421 122.05542919 35.41460561 123.45557105 35 126 C34.34 126 33.68 126 33 126 C32.82984375 126.54527344 32.6596875 127.09054688 32.484375 127.65234375 C30.90024622 132.58168064 29.0695124 137.27068873 26.8671875 141.95703125 C26.01830866 143.95686744 25.46651425 145.88164449 25 148 C22.69 148 20.38 148 18 148 C18 147.01 18 146.02 18 145 C17.113125 145.04125 16.22625 145.0825 15.3125 145.125 C12.02722987 145.00102754 9.94550705 144.38612096 7 143 C6.67 143.66 6.34 144.32 6 145 C6 144.34 6 143.68 6 143 C0.86523753 144.12385353 0.86523753 144.12385353 -4 146 C-4.144375 145.360625 -4.28875 144.72125 -4.4375 144.0625 C-4.81007181 142.02454854 -4.81007181 142.02454854 -6 141 C-7.00468898 137.98593305 -7.13039999 135.97107672 -7.14044189 132.82023621 C-7.14900711 131.21153908 -7.14900711 131.21153908 -7.15774536 129.57034302 C-7.15886322 128.39366058 -7.15998108 127.21697815 -7.16113281 126.00463867 C-7.16609772 124.76538132 -7.17106262 123.52612396 -7.17617798 122.24931335 C-7.18828823 118.8483544 -7.19574524 115.44745695 -7.20018864 112.04648376 C-7.20312097 109.92088732 -7.2072261 107.79529626 -7.21169281 105.66970253 C-7.22536575 99.01685842 -7.23503324 92.36402661 -7.2388947 85.71116942 C-7.24337429 78.03584318 -7.26091829 70.36069514 -7.2898953 62.68542308 C-7.31152503 56.74985776 -7.32159968 50.81434253 -7.32293582 44.87873822 C-7.32398298 41.33501001 -7.32987164 37.79144934 -7.34775543 34.24776268 C-7.36732576 30.29296519 -7.36294196 26.33838966 -7.35644531 22.38354492 C-7.3656601 21.21293518 -7.37487488 20.04232544 -7.3843689 18.83624268 C-7.35465749 13.06951726 -7.23140431 8.86776071 -4 4 C-3.01 4 -2.02 4 -1 4 C-1.495 3.01 -1.495 3.01 -2 2 C-1.34 2 -0.68 2 0 2 C0 1.34 0 0.68 0 0 Z M-5 8 C-5 33.41 -5 58.82 -5 85 C-4.67 85 -4.34 85 -4 85 C-4 59.59 -4 34.18 -4 8 C-4.33 8 -4.66 8 -5 8 Z M202 58 C202 58.33 202 58.66 202 59 C203.98 59 205.96 59 208 59 C208 58.67 208 58.34 208 58 C206.02 58 204.04 58 202 58 Z M218 58 C218 58.33 218 58.66 218 59 C219.65 59 221.3 59 223 59 C223 58.67 223 58.34 223 58 C221.35 58 219.7 58 218 58 Z M198 59 C202 60 202 60 202 60 Z M223 59 C227 60 227 60 227 60 Z M211 70 C210.01645309 71.01618674 209.02400862 72.02459939 208 73 C208.33 73.66 208.66 74.32 209 75 C211.61607756 75.3560862 211.61607756 75.3560862 214.6875 75.4375 C221.80362139 75.92710266 226.2202841 77.60354656 231 83 C231.85423025 84.06244888 232.70839389 85.12495132 233.5625 86.1875 C235.7567154 89.20212868 235.7567154 89.20212868 239 90 C240.39699062 92.4830523 241.4829269 95.04169702 242.62109375 97.65234375 C244.15237391 100.25942414 245.21045638 100.96354537 248 102 C248.61875 101.030625 249.2375 100.06125 249.875 99.0625 C252 96 252 96 254 95 C253.505 92.03 253.505 92.03 253 89 C252.34 89 251.68 89 251 89 C251.13921875 87.49759766 251.13921875 87.49759766 251.28125 85.96484375 C251.90722371 78.41947085 251.90722371 78.41947085 249.4296875 71.48046875 C245.52989848 67.95879615 242.2704123 66.46848109 237 66 C234.125 64.4375 234.125 64.4375 232 63 C232.33 62.34 232.66 61.68 233 61 C231.00994193 60.61169599 229.0064731 60.29185063 227 60 C225.906875 59.773125 224.81375 59.54625 223.6875 59.3125 C217.58660978 60.44995411 214.77422465 65.35536308 211 70 Z M186 66 C185.34 69.63 184.68 73.26 184 77 C182.7625 76.5875 181.525 76.175 180.25 75.75 C178.08921947 75.14289093 178.08921947 75.14289093 176 75 C172.95378588 77.10891747 172.17013611 78.48959166 171 82 C171.33 82.99 171.66 83.98 172 85 C173.98 85 175.96 85 178 85 C178 84.34 178 83.68 178 83 C178.37125 83.495 178.7425 83.99 179.125 84.5 C181.74694393 86.59755514 183.73842472 86.21743835 187 86 C187.33 84.68 187.66 83.36 188 82 C188.598125 81.896875 189.19625 81.79375 189.8125 81.6875 C193.29853335 80.59188952 194.53967005 78.81105753 196.3125 75.6875 C197.20263795 72.20786983 196.24724258 70.30152448 195 67 C195.33 66.34 195.66 65.68 196 65 C192.36699832 64.89619995 189.66581454 65.26683709 186 66 Z M206 74 C207 76 207 76 207 76 Z M199 76 C199.66 76.66 200.32 77.32 201 78 C201.66 77.34 202.32 76.68 203 76 C201.68 76 200.36 76 199 76 Z M206 77 C206 77.33 206 77.66 206 78 C210.29 78 214.58 78 219 78 C219 77.67 219 77.34 219 77 C214.71 77 210.42 77 206 77 Z M255 80 C256 82 256 82 256 82 Z M168 82 C169 84 169 84 169 84 Z M168 86 C168 86.66 168 87.32 168 88 C168.66 87.67 169.32 87.34 170 87 C169.34 86.67 168.68 86.34 168 86 Z M165 88 C166 91 166 91 166 91 Z M259 88 C260 90 260 90 260 90 Z M256 89 C257 91 257 91 257 91 Z M258 90 C259 92 259 92 259 92 Z M260 90 C261 92 261 92 261 92 Z M-5 93 C-5 94.65 -5 96.3 -5 98 C-4.67 98 -4.34 98 -4 98 C-4 96.35 -4 94.7 -4 93 C-4.33 93 -4.66 93 -5 93 Z M261 93 C262 96 262 96 262 96 Z M182 94 C183 96 183 96 183 96 Z M184 95 C185 97 185 97 185 97 Z M321 95 C322 98 322 98 322 98 Z M70 96 C70 96.33 70 96.66 70 97 C71.65 97 73.3 97 75 97 C75 96.67 75 96.34 75 96 C73.35 96 71.7 96 70 96 Z M65 97 C65 97.33 65 97.66 65 98 C66.65 98 68.3 98 70 98 C70 97.67 70 97.34 70 97 C68.35 97 66.7 97 65 97 Z M241 97 C242 99 242 99 242 99 Z M262 97 C262 98.65 262 100.3 262 102 C262.33 102 262.66 102 263 102 C263 100.35 263 98.7 263 97 C262.67 97 262.34 97 262 97 Z M183 98 C184 100 184 100 184 100 Z M322 99 C323 102 323 102 323 102 Z M242 100 C243 103 243 103 243 103 Z M244 101 C244.66 101.66 245.32 102.32 246 103 C246 102.34 246 101.68 246 101 C245.34 101 244.68 101 244 101 Z M182 102 C182 105.63 182 109.26 182 113 C182.33 113 182.66 113 183 113 C183 109.37 183 105.74 183 102 C182.67 102 182.34 102 182 102 Z M323 103 C323 104.65 323 106.3 323 108 C323.33 108 323.66 108 324 108 C324 106.35 324 104.7 324 103 C323.67 103 323.34 103 323 103 Z M263 104 C263 107.3 263 110.6 263 114 C263.33 114 263.66 114 264 114 C264 110.7 264 107.4 264 104 C263.67 104 263.34 104 263 104 Z M243 106 C244 108 244 108 244 108 Z M245 111 C246 113 246 113 246 113 Z M242 112 C243 115 243 115 243 115 Z M244 115 C245 117 245 117 245 117 Z M262 115 C263 118 263 118 263 118 Z M241 116 C242 118 242 118 242 118 Z M181 117 C180.67 117.66 180.34 118.32 180 119 C180.66 119 181.32 119 182 119 C181.67 118.34 181.34 117.68 181 117 Z M74 120 C78 121 78 121 78 121 Z M325 121 C325 123.31 325 125.62 325 128 C325.33 128 325.66 128 326 128 C326 125.69 326 123.38 326 121 C325.67 121 325.34 121 325 121 Z M260 122 C261 124 261 124 261 124 Z M258 128 C259 130 259 130 259 130 Z M324 133 C324 135.97 324 138.94 324 142 C324.33 142 324.66 142 325 142 C325 139.03 325 136.06 325 133 C324.67 133 324.34 133 324 133 Z M218 136 C222 137 222 137 222 137 Z M207 137 C207 137.33 207 137.66 207 138 C210.63 138 214.26 138 218 138 C218 137.67 218 137.34 218 137 C214.37 137 210.74 137 207 137 Z M25 139 C26 141 26 141 26 141 Z M51 139 C52 141 52 141 52 141 Z M214 139 C214.33 139.66 214.66 140.32 215 141 C215.99 141 216.98 141 218 141 C218 140.34 218 139.68 218 139 C216.68 139 215.36 139 214 139 Z M50 141 C51 143 51 143 51 143 Z M249 141 C250 143 250 143 250 143 Z M15 142 C19 143 19 143 19 143 Z M49 144 C50 146 50 146 50 146 Z M48 147 C49 150 49 150 49 150 Z M47 151 C47 153.64 47 156.28 47 159 C47.33 159 47.66 159 48 159 C48 156.36 48 153.72 48 151 C47.67 151 47.34 151 47 151 Z M58 175 C59 178 59 178 59 178 Z M59 178 C60 181 60 181 60 181 Z M-29 179 C-28 181 -28 181 -28 181 Z M-30 181 C-29 183 -29 183 -29 183 Z M60 181 C61 184 61 184 61 184 Z M-31 184 C-30 186 -30 186 -30 186 Z M40 184 C41 186 41 186 41 186 Z M61 184 C62 188 62 188 62 188 Z M-32 187 C-31 190 -31 190 -31 190 Z M41 187 C42 191 42 191 42 191 Z M62 188 C62 193.61 62 199.22 62 205 C62.33 205 62.66 205 63 205 C63 199.39 63 193.78 63 188 C62.67 188 62.34 188 62 188 Z M-33 191 C-33 194.3 -33 197.6 -33 201 C-32.67 201 -32.34 201 -32 201 C-32 197.7 -32 194.4 -32 191 C-32.33 191 -32.66 191 -33 191 Z M42 192 C42 194.97 42 197.94 42 201 C42.33 201 42.66 201 43 201 C43 198.03 43 195.06 43 192 C42.67 192 42.34 192 42 192 Z M41 201 C41 202.65 41 204.3 41 206 C41.33 206 41.66 206 42 206 C42 204.35 42 202.7 42 201 C41.67 201 41.34 201 41 201 Z M-32 203 C-31 207 -31 207 -31 207 Z M61 206 C62 210 62 210 62 210 Z M40 207 C41 209 41 209 41 209 Z M-31 208 C-30 210 -30 210 -30 210 Z M-30 210 C-29 212 -29 212 -29 212 Z M39 210 C40 212 40 212 40 212 Z M60 210 C61 213 61 213 61 213 Z M38 212 C39 214 39 214 39 214 Z M59 213 C60 215 60 215 60 215 Z M37 214 C38 216 38 216 38 216 Z M40 214 C39.67 214.66 39.34 215.32 39 216 C39.66 216 40.32 216 41 216 C40.67 215.34 40.34 214.68 40 214 Z M58 216 C59 218 59 218 59 218 Z M57 218 C56.67 219.65 56.34 221.3 56 223 C56.66 222.34 57.32 221.68 58 221 C57.67 220.01 57.34 219.02 57 218 Z M133 219 C133 219.33 133 219.66 133 220 C134.98 220 136.96 220 139 220 C139 219.67 139 219.34 139 219 C137.02 219 135.04 219 133 219 Z M157 219 C157 219.33 157 219.66 157 220 C160.63 220 164.26 220 168 220 C168 219.67 168 219.34 168 219 C164.37 219 160.74 219 157 219 Z M169 219 C170 221 170 221 170 221 Z M172 219 C173 221 173 221 173 221 Z M221 219 C220.67 219.66 220.34 220.32 220 221 C220.99 221.33 221.98 221.66 223 222 C223 221.01 223 220.02 223 219 C222.34 219 221.68 219 221 219 Z M55 223 C56 225 56 225 56 225 Z M12 252 C12 252.33 12 252.66 12 253 C13.98 253 15.96 253 18 253 C18 252.67 18 252.34 18 252 C16.02 252 14.04 252 12 252 Z M91 252 C92 254 92 254 92 254 Z M-5 253 C-5 298.54 -5 344.08 -5 391 C-4.67 391 -4.34 391 -4 391 C-4 345.46 -4 299.92 -4 253 C-4.33 253 -4.66 253 -5 253 Z M-1 253 C-1 253.33 -1 253.66 -1 254 C2.63 254 6.26 254 10 254 C10 253.67 10 253.34 10 253 C6.37 253 2.74 253 -1 253 Z M93 254 C94 257 94 257 94 257 Z M90 256 C91 258 91 258 91 258 Z M89 261 C90 263 90 263 90 263 Z M88 269 C89 271 89 271 89 271 Z M88 273 C88 305.01 88 337.02 88 370 C88.33 370 88.66 370 89 370 C89 337.99 89 305.98 89 273 C88.67 273 88.34 273 88 273 Z M87 371 C88 374 88 374 88 374 Z M43 397 C47 398 47 398 47 398 Z M-5 398 C-4 402 -4 402 -4 402 Z " fill="#1959EA" transform="translate(50,50)"/>
<path d="M0 0 C2.6875 1.625 2.6875 1.625 3.6875 3.625 C5.71213255 4.27713292 5.71213255 4.27713292 7.6875 4.625 C7.6875 5.285 7.6875 5.945 7.6875 6.625 C8.3475 6.625 9.0075 6.625 9.6875 6.625 C9.6875 7.285 9.6875 7.945 9.6875 8.625 C10.3475 8.625 11.0075 8.625 11.6875 8.625 C17.39234876 16.31414398 19.47656683 26.94680025 18.3671875 36.3359375 C16.09860836 48.32699864 11.72243332 54.45625486 2.1875 61.8125 C1.58019043 62.28518311 0.97288086 62.75786621 0.34716797 63.24487305 C-1.53637688 64.70885012 -3.4239439 66.16749526 -5.3125 67.625 C-5.90256836 68.08165039 -6.49263672 68.53830078 -7.10058594 69.00878906 C-8.79503261 70.31991127 -10.49087908 71.62919285 -12.1875 72.9375 C-12.72415283 73.35169189 -13.26080566 73.76588379 -13.8137207 74.19262695 C-17.42556649 76.97032304 -21.08809993 79.66535456 -24.82421875 82.2734375 C-26.45819329 83.59153418 -26.45819329 83.59153418 -27.3671875 85.76171875 C-27.83511719 86.68404297 -27.83511719 86.68404297 -28.3125 87.625 C-29.5190625 87.8415625 -29.5190625 87.8415625 -30.75 88.0625 C-31.595625 88.248125 -32.44125 88.43375 -33.3125 88.625 C-34.32601664 90.28348177 -35.32370795 91.95165961 -36.3125 93.625 C-39.7619565 96.66119643 -42.84535259 98.5662582 -47.3125 99.625 C-49.48989009 101.467407 -50.70407244 103.21235866 -52.3125 105.625 C-52.9725 105.625 -53.6325 105.625 -54.3125 105.625 C-54.3125 106.615 -54.3125 107.605 -54.3125 108.625 C-57.02638267 109.7424811 -59.68082445 110.73333072 -62.5 111.5625 C-65.59669743 112.42044031 -65.59669743 112.42044031 -67.3125 115.625 C-67.3125 116.285 -67.3125 116.945 -67.3125 117.625 C-68.82421875 118.78125 -68.82421875 118.78125 -71 120.125 C-76.71973744 123.81658793 -82.04452852 127.97384867 -87.41162109 132.15087891 C-90.96926949 134.90981559 -94.54815275 137.64103163 -98.125 140.375 C-98.81787109 140.90552979 -99.51074219 141.43605957 -100.22460938 141.98266602 C-100.89943359 142.49885498 -101.57425781 143.01504395 -102.26953125 143.546875 C-102.93033691 144.05283203 -103.59114258 144.55878906 -104.27197266 145.08007812 C-105.69543538 146.1578087 -107.1282029 147.22331163 -108.56787109 148.27929688 C-109.65382568 149.0769043 -109.65382568 149.0769043 -110.76171875 149.890625 C-111.41873779 150.36790039 -112.07575684 150.84517578 -112.75268555 151.33691406 C-114.44908256 152.5607433 -114.44908256 152.5607433 -115.3125 154.625 C-115.9725 154.625 -116.6325 154.625 -117.3125 154.625 C-117.6425 155.285 -117.9725 155.945 -118.3125 156.625 C-125.48615854 158.18449099 -134.76932402 159.25870373 -141.50390625 155.8671875 C-144.91056625 153.52740806 -147.88545458 150.71305697 -150.89453125 147.890625 C-152.88022217 146.03004224 -154.89558012 144.28386817 -157 142.5625 C-160.18677188 139.86714621 -162.79116612 136.81909674 -165.484375 133.640625 C-167.96522683 130.90532683 -170.73190254 128.58957509 -173.54296875 126.203125 C-175.7688145 124.21804403 -177.47908522 121.97406268 -179.3125 119.625 C-184.11680911 114.10846436 -184.11680911 114.10846436 -190.3125 110.625 C-190.6425 109.965 -190.9725 109.305 -191.3125 108.625 C-191.9725 108.295 -192.6325 107.965 -193.3125 107.625 C-195.09602981 102.64561614 -195.63754681 98.00682805 -195.7265625 92.72265625 C-195.74592865 92.0000914 -195.7652948 91.27752655 -195.7852478 90.5330658 C-195.84447605 88.25132625 -195.89119855 85.96953467 -195.9375 83.6875 C-195.97573223 82.1295367 -196.01478692 80.57159334 -196.0546875 79.01367188 C-196.15012975 75.21761219 -196.23436668 71.42145378 -196.3125 67.625 C-196.6425 67.625 -196.9725 67.625 -197.3125 67.625 C-198.44605962 60.25686245 -199.70116434 51.79099303 -197.3125 44.625 C-194.69978899 42.71571118 -193.216117 42.62678487 -189.9375 42.6875 C-186.29402948 42.88559491 -186.29402948 42.88559491 -183.3125 41.125 C-178.98847168 38.96298584 -175.66089114 38.87319148 -171.04296875 40.3515625 C-166.15567273 42.34538476 -162.82888202 44.60627769 -159.3125 48.625 C-158.57 49.305625 -157.8275 49.98625 -157.0625 50.6875 C-155.3125 52.625 -155.3125 52.625 -154.93286133 54.49145508 C-154.11246132 57.31297247 -152.70254705 58.62313335 -150.63671875 60.69921875 C-149.89099609 61.44880859 -149.14527344 62.19839844 -148.37695312 62.97070312 C-147.59255859 63.74349609 -146.80816406 64.51628906 -146 65.3125 C-145.22720703 66.09689453 -144.45441406 66.88128906 -143.65820312 67.68945312 C-142.90861328 68.43517578 -142.15902344 69.18089844 -141.38671875 69.94921875 C-140.70182373 70.63072998 -140.01692871 71.31224121 -139.3112793 72.0144043 C-137.21930864 73.70009264 -135.88790914 74.07420943 -133.3125 74.625 C-132.673125 75.305625 -132.03375 75.98625 -131.375 76.6875 C-129.44676482 78.89740386 -129.44676482 78.89740386 -126.5625 78.875 C-125.82 78.7925 -125.0775 78.71 -124.3125 78.625 C-124.085625 77.985625 -123.85875 77.34625 -123.625 76.6875 C-122.9753125 75.6665625 -122.9753125 75.6665625 -122.3125 74.625 C-120.64583333 74.29166667 -118.97916667 73.95833333 -117.3125 73.625 C-115.80137058 71.35830587 -115.17810153 69.2218046 -114.3125 66.625 C-112.64583333 65.95833333 -110.97916667 65.29166667 -109.3125 64.625 C-108.8175 63.14 -108.8175 63.14 -108.3125 61.625 C-107.9825 61.955 -107.6525 62.285 -107.3125 62.625 C-106.961875 62.150625 -106.61125 61.67625 -106.25 61.1875 C-104.3125 59.625 -104.3125 59.625 -101.25 59.4375 C-95.573763 58.87957927 -91.22158879 54.47691748 -87.3125 50.625 C-86.88517578 49.65240234 -86.88517578 49.65240234 -86.44921875 48.66015625 C-84.63917928 45.41950139 -81.48188416 43.84934938 -78.4375 41.875 C-72.53066133 37.98558869 -72.53066133 37.98558869 -68.875 32.0625 C-68.1015625 30.3609375 -68.1015625 30.3609375 -67.3125 28.625 C-64.0625 28 -64.0625 28 -60.3125 27.625 C-56.61159597 25.48201329 -53.32611104 23.01479658 -50.796875 19.546875 C-45.95325278 13.27565886 -35.26213075 12.17356439 -27.96484375 10.37524414 C-26.76601563 10.07734985 -26.76601563 10.07734985 -25.54296875 9.7734375 C-24.82520264 9.59989746 -24.10743652 9.42635742 -23.36791992 9.24755859 C-21.16264865 8.57961207 -19.28677611 7.81661954 -17.3125 6.625 C-17.02375 5.820625 -16.735 5.01625 -16.4375 4.1875 C-15.3125 1.625 -15.3125 1.625 -12.5625 -0.1875 C-7.69911256 -1.96450695 -4.79586664 -1.9907371 0 0 Z M-180.3125 41.625 C-180.3125 41.955 -180.3125 42.285 -180.3125 42.625 C-177.3425 42.625 -174.3725 42.625 -171.3125 42.625 C-171.3125 42.295 -171.3125 41.965 -171.3125 41.625 C-174.2825 41.625 -177.2525 41.625 -180.3125 41.625 Z M-196.3125 58.625 C-195.3125 60.625 -195.3125 60.625 -195.3125 60.625 Z M-134.3125 155.625 C-134.3125 155.955 -134.3125 156.285 -134.3125 156.625 C-131.3425 156.625 -128.3725 156.625 -125.3125 156.625 C-125.3125 156.295 -125.3125 155.965 -125.3125 155.625 C-128.2825 155.625 -131.2525 155.625 -134.3125 155.625 Z " fill="#00AED4" transform="translate(351.3125,268.375)"/>
<path d="M0 0 C0.66 0.33 1.32 0.66 2 1 C2 32.35 2 63.7 2 96 C9.14746035 90.48537191 9.14746035 90.48537191 15.875 84.625 C19.33322388 81.46656023 22.85783498 78.44451087 26.5 75.5 C30.0947765 72.5918662 33.58260628 69.61458668 37 66.5 C41.29857479 62.58231158 45.75609805 58.91032858 50.27734375 55.25390625 C52.94137353 53.04853296 55.50788442 50.7682369 58.0625 48.4375 C61.28851261 45.49688503 64.57119089 42.70132387 68 40 C73.21136606 35.89135246 78.09846438 31.46975271 83 27 C84.47408978 25.66105597 85.95285162 24.3272268 87.4375 23 C88.05496094 22.443125 88.67242187 21.88625 89.30859375 21.3125 C91 20 91 20 94 19 C94.495 26.92 94.495 26.92 95 35 C95.66 35 96.32 35 97 35 C97.02340262 43.42483866 97.04105483 51.84966323 97.05181217 60.2745266 C97.05698098 64.18856345 97.06396623 68.10257771 97.07543945 72.01660156 C97.21435827 120.84770106 97.21435827 120.84770106 92 129 C91.46375 129.845625 90.9275 130.69125 90.375 131.5625 C89.92125 132.036875 89.4675 132.51125 89 133 C88.34 133 87.68 133 87 133 C87 133.66 87 134.32 87 135 C82.14938823 138.06875439 78.78893397 139.40114476 73 140 C71.41207593 140.26553914 69.82851188 140.55827593 68.25 140.875 C67.51265625 141.01679688 66.7753125 141.15859375 66.015625 141.3046875 C63.66619527 142.11514969 62.70440987 143.23127278 61 145 C57.09537884 146.34886913 54.14770148 147 50 147 C49.67 147.66 49.34 148.32 49 149 C45.61460532 149.8660312 43.25817243 150.05062204 39.8125 149.375 C38.4203125 149.189375 38.4203125 149.189375 37 149 C35.22809091 150.35444301 35.22809091 150.35444301 34 152 C33.34 152 32.68 152 32 152 C31.67 151.67 31.34 151.34 31 151 C30.01 151.99 30.01 151.99 29 153 C27.06629402 153 25.13212743 152.99302341 23.19921875 152.9375 C20.40814678 153.01681999 17.90393686 153.79693805 15.23046875 154.5546875 C10.8734406 155.42456703 6.42191584 155.14631339 2 155 C2 154.34 2 153.68 2 153 C1.34 152.67 0.68 152.34 0 152 C-1.21118286 148.6944905 -1.12576452 145.434148 -1.12698364 141.94502258 C-1.12980347 140.70408844 -1.13262329 139.4631543 -1.13552856 138.18461609 C-1.13358436 136.81228623 -1.1315362 135.43995652 -1.12939453 134.06762695 C-1.13074974 132.62040157 -1.13253034 131.17317653 -1.13470459 129.72595215 C-1.13926349 125.79855257 -1.13749601 121.87117926 -1.1343255 117.94377923 C-1.13179541 113.8376154 -1.13414112 109.73145383 -1.13571167 105.62528992 C-1.13753084 98.73285518 -1.13513301 91.84043116 -1.13037109 84.94799805 C-1.12492248 76.96927481 -1.12669648 68.9905771 -1.1321975 61.01185447 C-1.13672808 54.16765127 -1.13737964 47.32345578 -1.13475883 40.47925156 C-1.13319659 36.38858667 -1.13300099 32.2979338 -1.13629532 28.20726967 C-1.13917346 24.36514966 -1.13719942 20.52306276 -1.13140106 16.68094635 C-1.13007343 15.2671508 -1.13046763 13.85335249 -1.13266373 12.43955803 C-1.13537491 10.51771516 -1.13138069 8.59586624 -1.12698364 6.67402649 C-1.12660662 5.59611501 -1.12622959 4.51820353 -1.12584114 3.40762806 C-1 1 -1 1 0 0 Z M93 119 C94 122 94 122 94 122 Z M49 145 C53 146 53 146 53 146 Z M1 146 C2 150 2 150 2 150 Z " fill="#0239A3" transform="translate(44,302)"/>
<path d="M0 0 C0 0.99 0 1.98 0 3 C0.66 3.33 1.32 3.66 2 4 C0.71520959 5.50589388 -0.57804082 7.00457375 -1.875 8.5 C-2.59429687 9.3353125 -3.31359375 10.170625 -4.0546875 11.03125 C-4.69664062 11.6809375 -5.33859375 12.330625 -6 13 C-6.66 13 -7.32 13 -8 13 C-8 13.99 -8 14.98 -8 16 C-7.20335937 16.03738281 -6.40671875 16.07476562 -5.5859375 16.11328125 C3.56704884 16.68116726 8.63863511 18.14929935 15 25 C15.845625 25.845625 16.69125 26.69125 17.5625 27.5625 C18.366875 28.366875 19.17125 29.17125 20 30 C20.70125 30.639375 21.4025 31.27875 22.125 31.9375 C24.70811794 34.77892973 27 38.05523382 27 42 C28.98 42.495 28.98 42.495 31 43 C31.433125 42.195625 31.86625 41.39125 32.3125 40.5625 C34 38 34 38 37 37 C36.505 34.03 36.505 34.03 36 31 C34.515 31.495 34.515 31.495 33 32 C33 27.05 33 22.1 33 17 C38 22 38 22 38 26 C38.66 26 39.32 26 40 26 C40 26.99 40 27.98 40 29 C41.485 29.495 41.485 29.495 43 30 C44.71159416 37.8160227 45.25821386 45.1997923 45.125 53.1875 C45.11597656 54.23486328 45.10695313 55.28222656 45.09765625 56.36132812 C45.07440075 58.90780514 45.04172569 61.45377031 45 64 C43.66666667 64 42.33333333 64 41 64 C40.01 65.98 40.01 65.98 39 68 C39.99 67.67 40.98 67.34 42 67 C42 67.66 42 68.32 42 69 C41.34 69 40.68 69 40 69 C40.33 70.65 40.66 72.3 41 74 C39.68 74 38.36 74 37 74 C36.5978125 75.670625 36.5978125 75.670625 36.1875 77.375 C35 81 35 81 32 83 C32.02320313 82.07058594 32.04640625 81.14117187 32.0703125 80.18359375 C32.35656863 70.86786747 32.35656863 70.86786747 30 62 C28.515 61.01 28.515 61.01 27 60 C26.608125 61.093125 26.21625 62.18625 25.8125 63.3125 C24.2622873 66.96394888 22.58006503 68.20996749 19 70 C17.24850835 71.58245275 17.24850835 71.58245275 16 73 C16.66 73 17.32 73 18 73 C18 73.66 18 74.32 18 75 C17.28972656 75.26554687 16.57945312 75.53109375 15.84765625 75.8046875 C14.92855469 76.15789062 14.00945312 76.51109375 13.0625 76.875 C12.14597656 77.22304687 11.22945313 77.57109375 10.28515625 77.9296875 C7.85058944 78.7819086 7.85058944 78.7819086 7 81 C5.35 80.67 3.7 80.34 2 80 C1.67 81.65 1.34 83.3 1 85 C-1.97 84.505 -1.97 84.505 -5 84 C-5 83.34 -5 82.68 -5 82 C-7.97 81.34 -10.94 80.68 -14 80 C-14 79.34 -14 78.68 -14 78 C-20.47251733 74.53795585 -24.88275067 73.50163172 -32 75 C-36.93303571 69.8203125 -36.93303571 69.8203125 -37.25 65.9375 C-37.1675 64.968125 -37.085 63.99875 -37 63 C-37.291224 61.32546201 -37.61070799 59.65449105 -38 58 C-38.99 58.495 -38.99 58.495 -40 59 C-40.33910994 56.95928485 -40.67102704 54.91737379 -41 52.875 C-41.185625 51.73804688 -41.37125 50.60109375 -41.5625 49.4296875 C-42 46 -42 46 -41.875 42.75 C-41.73363818 40.00661381 -41.73363818 40.00661381 -43.3125 38.3203125 C-43.869375 37.92585938 -44.42625 37.53140625 -45 37.125 C-46.485 36.073125 -46.485 36.073125 -48 35 C-48.66 35.66 -49.32 36.32 -50 37 C-50.66 36.67 -51.32 36.34 -52 36 C-51.57453287 33.53229066 -51.31304738 32.28800359 -49.4375 30.5625 C-47.72062597 29.02256504 -47.72062597 29.02256504 -47.8125 26.3125 C-47.874375 25.549375 -47.93625 24.78625 -48 24 C-47.01 24 -46.02 24 -45 24 C-45 24.99 -45 25.98 -45 27 C-43.02 27 -41.04 27 -39 27 C-39 26.34 -39 25.68 -39 25 C-38.01 25.33 -37.02 25.66 -36 26 C-36 26.66 -36 27.32 -36 28 C-34.02 28 -32.04 28 -30 28 C-29.95875 27.38125 -29.9175 26.7625 -29.875 26.125 C-29.58625 25.42375 -29.2975 24.7225 -29 24 C-28.030625 23.731875 -27.06125 23.46375 -26.0625 23.1875 C-22.6731871 22.28137915 -22.6731871 22.28137915 -21.5 18.75 C-20.96516677 14.73875074 -21.34868282 12.65028008 -23 9 C-23.33 8.67 -23.66 8.34 -24 8 C-26.00720923 8.28674418 -28.0085944 8.61866701 -30 9 C-30.33 8.34 -30.66 7.68 -31 7 C-28.81591992 4.50293648 -27.31176742 3.56073006 -24.0625 2.9375 C-23.27617187 2.7828125 -22.48984375 2.628125 -21.6796875 2.46875 C-17.69081407 1.77098788 -13.69896106 1.09748273 -9.69921875 0.46484375 C-7.06842744 0.06193126 -7.06842744 0.06193126 -4.83203125 -0.62109375 C-3 -1 -3 -1 0 0 Z M-11 16 C-10 18 -10 18 -10 18 Z M-18 18 C-17.34 18.66 -16.68 19.32 -16 20 C-15.34 19.34 -14.68 18.68 -14 18 C-15.32 18 -16.64 18 -18 18 Z M-11 19 C-11 19.33 -11 19.66 -11 20 C-6.71 20 -2.42 20 2 20 C2 19.67 2 19.34 2 19 C-2.29 19 -6.58 19 -11 19 Z M39 31 C40 33 40 33 40 33 Z M41 32 C42 34 42 34 42 34 Z M-35 36 C-34 38 -34 38 -34 38 Z M-33 37 C-32 39 -32 39 -32 39 Z M24 39 C25 41 25 41 25 41 Z M-34 40 C-33 42 -33 42 -33 42 Z M25 42 C26 45 26 45 26 45 Z M27 43 C27.66 43.66 28.32 44.32 29 45 C29 44.34 29 43.68 29 43 C28.34 43 27.68 43 27 43 Z M-35 44 C-35 47.63 -35 51.26 -35 55 C-34.67 55 -34.34 55 -34 55 C-34 51.37 -34 47.74 -34 44 C-34.33 44 -34.66 44 -35 44 Z M26 48 C27 50 27 50 27 50 Z M28 53 C29 55 29 55 29 55 Z M25 54 C26 57 26 57 26 57 Z M27 57 C28 59 28 59 28 59 Z M24 58 C25 60 25 60 25 60 Z M-36 59 C-36.33 59.66 -36.66 60.32 -37 61 C-36.34 61 -35.68 61 -35 61 C-35.33 60.34 -35.66 59.68 -36 59 Z M1 78 C5 79 5 79 5 79 Z M-10 79 C-10 79.33 -10 79.66 -10 80 C-6.37 80 -2.74 80 1 80 C1 79.67 1 79.34 1 79 C-2.63 79 -6.26 79 -10 79 Z M-3 81 C-2.67 81.66 -2.34 82.32 -2 83 C-1.01 83 -0.02 83 1 83 C1 82.34 1 81.68 1 81 C-0.32 81 -1.64 81 -3 81 Z " fill="#1858EA" transform="translate(267,108)"/>
<path d="M0 0 C0 0.99 0 1.98 0 3 C0.66 3.33 1.32 3.66 2 4 C0.71520959 5.50589388 -0.57804082 7.00457375 -1.875 8.5 C-2.59429687 9.3353125 -3.31359375 10.170625 -4.0546875 11.03125 C-4.69664062 11.6809375 -5.33859375 12.330625 -6 13 C-6.66 13 -7.32 13 -8 13 C-8.33 14.65 -8.66 16.3 -9 18 C-9.99 18 -10.98 18 -12 18 C-15.85902036 18.48237754 -17.39596068 19.18763754 -20 22 C-21.3921875 22.86625 -21.3921875 22.86625 -22.8125 23.75 C-28.55491699 27.80347082 -32.21289981 32.12653773 -34 39 C-34.53913605 40.50091142 -35.08099304 42.00084717 -35.625 43.5 C-36.82729279 47.12518738 -37.45846489 50.14889492 -37 54 C-35.33075929 57.04134491 -35.33075929 57.04134491 -33 58 C-34.32 58.66 -35.64 59.32 -37 60 C-37.33 59.34 -37.66 58.68 -38 58 C-38.99 58.495 -38.99 58.495 -40 59 C-40.33910994 56.95928485 -40.67102704 54.91737379 -41 52.875 C-41.185625 51.73804688 -41.37125 50.60109375 -41.5625 49.4296875 C-42 46 -42 46 -41.875 42.75 C-41.73363818 40.00661381 -41.73363818 40.00661381 -43.3125 38.3203125 C-43.869375 37.92585938 -44.42625 37.53140625 -45 37.125 C-46.485 36.073125 -46.485 36.073125 -48 35 C-48.66 35.66 -49.32 36.32 -50 37 C-50.66 36.67 -51.32 36.34 -52 36 C-51.57453287 33.53229066 -51.31304738 32.28800359 -49.4375 30.5625 C-47.72062597 29.02256504 -47.72062597 29.02256504 -47.8125 26.3125 C-47.874375 25.549375 -47.93625 24.78625 -48 24 C-47.01 24 -46.02 24 -45 24 C-45 24.99 -45 25.98 -45 27 C-43.02 27 -41.04 27 -39 27 C-39 26.34 -39 25.68 -39 25 C-38.01 25.33 -37.02 25.66 -36 26 C-36 26.66 -36 27.32 -36 28 C-34.02 28 -32.04 28 -30 28 C-29.95875 27.38125 -29.9175 26.7625 -29.875 26.125 C-29.58625 25.42375 -29.2975 24.7225 -29 24 C-28.030625 23.731875 -27.06125 23.46375 -26.0625 23.1875 C-22.6731871 22.28137915 -22.6731871 22.28137915 -21.5 18.75 C-20.96516677 14.73875074 -21.34868282 12.65028008 -23 9 C-23.33 8.67 -23.66 8.34 -24 8 C-26.00720923 8.28674418 -28.0085944 8.61866701 -30 9 C-30.33 8.34 -30.66 7.68 -31 7 C-28.81591992 4.50293648 -27.31176742 3.56073006 -24.0625 2.9375 C-23.27617187 2.7828125 -22.48984375 2.628125 -21.6796875 2.46875 C-17.69081407 1.77098788 -13.69896106 1.09748273 -9.69921875 0.46484375 C-7.06842744 0.06193126 -7.06842744 0.06193126 -4.83203125 -0.62109375 C-3 -1 -3 -1 0 0 Z " fill="#0002FE" transform="translate(267,108)"/>
<path d="M0 0 C5 5 5 5 5 9 C5.66 9 6.32 9 7 9 C7 9.99 7 10.98 7 12 C7.99 12.33 8.98 12.66 10 13 C11.71159416 20.8160227 12.25821386 28.1997923 12.125 36.1875 C12.11597656 37.23486328 12.10695313 38.28222656 12.09765625 39.36132812 C12.07440075 41.90780514 12.04172569 44.45377031 12 47 C10.66666667 47 9.33333333 47 8 47 C7.34 48.32 6.68 49.64 6 51 C7.485 50.505 7.485 50.505 9 50 C9 50.66 9 51.32 9 52 C8.34 52 7.68 52 7 52 C7.33 53.65 7.66 55.3 8 57 C6.68 57 5.36 57 4 57 C3.731875 58.11375 3.46375 59.2275 3.1875 60.375 C2 64 2 64 -1 66 C-0.97679687 65.07058594 -0.95359375 64.14117187 -0.9296875 63.18359375 C-0.66451495 53.87252857 -0.66451495 53.87252857 -3 45 C-3.53625 44.46375 -4.0725 43.9275 -4.625 43.375 C-6 42 -6 42 -6.25 39.5625 C-6 37 -6 37 -5.4375 34.8125 C-4.77357897 32.91567768 -4.77357897 32.91567768 -6 31 C-6.33 30.34 -6.66 29.68 -7 29 C-6.4225 28.608125 -5.845 28.21625 -5.25 27.8125 C-2.86421365 26.02960241 -2.86421365 26.02960241 -0.9375 23.375 C1 21 1 21 4 20 C3.67 18.02 3.34 16.04 3 14 C2.01 14.33 1.02 14.66 0 15 C0 10.05 0 5.1 0 0 Z M6 14 C7 16 7 16 7 16 Z M8 15 C9 17 9 17 9 17 Z " fill="#0004FE" transform="translate(300,125)"/>
<path d="M0 0 C1.05703125 0.00644531 2.1140625 0.01289063 3.203125 0.01953125 C5.75 0.1875 5.75 0.1875 6.75 1.1875 C6.75 0.8575 6.75 0.5275 6.75 0.1875 C11.09163015 0.1627364 15.4332226 0.14460985 19.77490234 0.13256836 C21.25114661 0.12754712 22.72738592 0.12072884 24.20361328 0.11206055 C26.32846298 0.09989811 28.45324678 0.09424954 30.578125 0.08984375 C31.8559082 0.08460693 33.13369141 0.07937012 34.45019531 0.07397461 C37.13101512 0.16620465 39.21544687 0.40542617 41.75 1.1875 C47.48201554 2.39928688 47.48201554 2.39928688 52.75 0.1875 C55.17016602 -0.07128906 55.17016602 -0.07128906 58.00390625 -0.078125 C59.02291016 -0.08070313 60.04191406 -0.08328125 61.09179688 -0.0859375 C62.15462891 -0.07820313 63.21746094 -0.07046875 64.3125 -0.0625 C65.37919922 -0.07023437 66.44589844 -0.07796875 67.54492188 -0.0859375 C69.07149414 -0.08207031 69.07149414 -0.08207031 70.62890625 -0.078125 C72.02991577 -0.07474121 72.02991577 -0.07474121 73.45922852 -0.07128906 C75.75 0.1875 75.75 0.1875 77.75 2.1875 C77.75 1.5275 77.75 0.8675 77.75 0.1875 C79.6875 0.5 79.6875 0.5 81.75 1.1875 C82.245 2.6725 82.245 2.6725 82.75 4.1875 C80.8628125 4.249375 80.8628125 4.249375 78.9375 4.3125 C77.87595703 4.34730469 77.87595703 4.34730469 76.79296875 4.3828125 C74.75 4.1875 74.75 4.1875 71.75 2.1875 C71.75 2.8475 71.75 3.5075 71.75 4.1875 C69.44 4.8475 67.13 5.5075 64.75 6.1875 C64.75 6.5175 64.75 6.8475 64.75 7.1875 C62.20947886 7.55258677 59.6682372 7.90481457 57.125 8.25 C56.41214844 8.35376953 55.69929688 8.45753906 54.96484375 8.56445312 C50.61172004 9.14353839 47.10317955 8.99813607 42.75 8.1875 C41.76 8.5175 40.77 8.8475 39.75 9.1875 C37.91015625 8.12109375 37.91015625 8.12109375 35.8125 6.625 C30.7417149 3.64849037 27.26497514 4.12861664 21.65625 5.375 C18.41823295 6.28025208 15.2626201 7.32978094 12.09375 8.44921875 C3.87408904 11.03841195 -2.98620853 11.66663744 -11.25 9.1875 C-11.25 8.5275 -11.25 7.8675 -11.25 7.1875 C-12.57 7.1875 -13.89 7.1875 -15.25 7.1875 C-17.25 5.1875 -17.25 5.1875 -18.25 3.1875 C-17.198125 3.06375 -16.14625 2.94 -15.0625 2.8125 C-11.41841533 2.37654391 -11.41841533 2.37654391 -8.90234375 1.16015625 C-5.78580087 0.01727087 -3.31020861 -0.04484273 0 0 Z " fill="#0001FF" transform="translate(195.25,268.8125)"/>
<path d="M0 0 C3.63 0.33 7.26 0.66 11 1 C11 1.33 11 1.66 11 2 C40.04 2.33 69.08 2.66 99 3 C99 3.33 99 3.66 99 4 C97.88215118 4.00808685 96.76430237 4.01617371 95.61257935 4.02450562 C85.04940351 4.10217655 74.48635316 4.18996791 63.92334175 4.28752708 C58.49351657 4.33735508 53.06370957 4.38368587 47.63378906 4.421875 C42.38820677 4.45889882 37.14278185 4.50530419 31.89733505 4.55806351 C29.90162812 4.57651695 27.90588758 4.59165786 25.91012955 4.60334396 C23.10284753 4.62036227 20.29591888 4.64943305 17.48876953 4.68115234 C16.26632286 4.68439262 16.26632286 4.68439262 15.0191803 4.68769836 C8.71775724 4.77795074 1.71820364 5.14089818 -4 8 C-4 22.85 -4 37.7 -4 53 C-3.67 53 -3.34 53 -3 53 C-3 81.71 -3 110.42 -3 140 C1.95 140 6.9 140 12 140 C12 140.33 12 140.66 12 141 C6.06 141 0.12 141 -6 141 C-7.00468898 137.98593305 -7.13039999 135.97107672 -7.14044189 132.82023621 C-7.14900711 131.21153908 -7.14900711 131.21153908 -7.15774536 129.57034302 C-7.15886322 128.39366058 -7.15998108 127.21697815 -7.16113281 126.00463867 C-7.16609772 124.76538132 -7.17106262 123.52612396 -7.17617798 122.24931335 C-7.18828823 118.8483544 -7.19574524 115.44745695 -7.20018864 112.04648376 C-7.20312097 109.92088732 -7.2072261 107.79529626 -7.21169281 105.66970253 C-7.22536575 99.01685842 -7.23503324 92.36402661 -7.2388947 85.71116942 C-7.24337429 78.03584318 -7.26091829 70.36069514 -7.2898953 62.68542308 C-7.31152503 56.74985776 -7.32159968 50.81434253 -7.32293582 44.87873822 C-7.32398298 41.33501001 -7.32987164 37.79144934 -7.34775543 34.24776268 C-7.36732576 30.29296519 -7.36294196 26.33838966 -7.35644531 22.38354492 C-7.3656601 21.21293518 -7.37487488 20.04232544 -7.3843689 18.83624268 C-7.35465749 13.06951726 -7.23140431 8.86776071 -4 4 C-3.01 4 -2.02 4 -1 4 C-1.33 3.34 -1.66 2.68 -2 2 C-1.34 2 -0.68 2 0 2 C0 1.34 0 0.68 0 0 Z M-5 93 C-5 94.65 -5 96.3 -5 98 C-4.67 98 -4.34 98 -4 98 C-4 96.35 -4 94.7 -4 93 C-4.33 93 -4.66 93 -5 93 Z " fill="#1352E5" transform="translate(50,50)"/>
<path d="M0 0 C1.32 0.33 2.64 0.66 4 1 C4 1.66 4 2.32 4 3 C4.66 3 5.32 3 6 3 C6 3.66 6 4.32 6 5 C6.66 5 7.32 5 8 5 C9.60968626 9.53638854 8.32499677 12.62130893 6.69140625 16.9140625 C5.84268624 19.1083511 5.84268624 19.1083511 6 22 C4.25 23.82421875 4.25 23.82421875 2 25.6875 C1.2575 26.31011719 0.515 26.93273437 -0.25 27.57421875 C-0.8275 28.04472656 -1.405 28.51523437 -2 29 C-3.99028875 27.33607581 -4.91025468 26.35962232 -5.546875 23.80859375 C-5.61390625 23.02613281 -5.6809375 22.24367188 -5.75 21.4375 C-5.86601563 20.25994141 -5.86601563 20.25994141 -5.984375 19.05859375 C-6 17 -6 17 -5 15 C-7.64 15 -10.28 15 -13 15 C-12.34 13.68 -11.68 12.36 -11 11 C-9.68 11 -8.36 11 -7 11 C-7.33 10.01 -7.66 9.02 -8 8 C-7.030625 7.54625 -6.06125 7.0925 -5.0625 6.625 C-1.92920418 5.34213779 -1.92920418 5.34213779 -1 3 C-0.34 3 0.32 3 1 3 C0.67 2.01 0.34 1.02 0 0 Z " fill="#0001FE" transform="translate(90,263)"/>
<path d="M0 0 C0.66 0.33 1.32 0.66 2 1 C1.979375 2.11375 1.95875 3.2275 1.9375 4.375 C1.73619282 7.83215921 1.73619282 7.83215921 3 10 C2.34 10 1.68 10 1 10 C1.165 10.763125 1.33 11.52625 1.5 12.3125 C2.16562149 17.22145849 2.07920078 22.05435114 2 27 C2.33 24.69 2.66 22.38 3 20 C5.34044335 23.66713319 5.16546367 26.68414458 5.01953125 30.9609375 C4.98936332 32.33331446 4.96009454 33.70571143 4.93164062 35.078125 C4.87596077 37.22682775 4.81251806 39.37451407 4.73266602 41.52246094 C4.65968171 43.60622275 4.61879713 45.6887636 4.58203125 47.7734375 C4.54311768 49.01528809 4.5042041 50.25713867 4.46411133 51.53662109 C5.17766642 56.14823501 6.79079948 57.67347125 10 61 C10.54785156 61.65226562 11.09570312 62.30453125 11.66015625 62.9765625 C14.32881024 66.11353182 17.02750573 69.14183244 20 72 C19.67 72.66 19.34 73.32 19 74 C18.24074219 73.21753906 17.48148438 72.43507813 16.69921875 71.62890625 C15.69558014 70.60650804 14.69165911 69.58438701 13.6875 68.5625 C12.93823242 67.7880957 12.93823242 67.7880957 12.17382812 66.99804688 C9.80130365 64.59409824 8.25029621 63.08343207 5 62 C4.67 61.34 4.34 60.68 4 60 C3.34 59.67 2.68 59.34 2 59 C0.21647019 54.02061614 -0.32504681 49.38182805 -0.4140625 44.09765625 C-0.43342865 43.3750914 -0.4527948 42.65252655 -0.4727478 41.9080658 C-0.53197605 39.62632625 -0.57869855 37.34453467 -0.625 35.0625 C-0.66323223 33.5045367 -0.70228692 31.94659334 -0.7421875 30.38867188 C-0.83762975 26.59261219 -0.92186668 22.79645378 -1 19 C-1.33 19 -1.66 19 -2 19 C-3.37197713 13.35964956 -3.06656853 7.67599947 -2 2 C-1.34 1.34 -0.68 0.68 0 0 Z M-1 10 C0 12 0 12 0 12 Z " fill="#00A9DA" transform="translate(156,317)"/>
<path d="M0 0 C3.63 0.33 7.26 0.66 11 1 C11 1.33 11 1.66 11 2 C40.04 2.33 69.08 2.66 99 3 C99 3.33 99 3.66 99 4 C97.88215118 4.00808685 96.76430237 4.01617371 95.61257935 4.02450562 C85.04940351 4.10217655 74.48635316 4.18996791 63.92334175 4.28752708 C58.49351657 4.33735508 53.06370957 4.38368587 47.63378906 4.421875 C42.38820677 4.45889882 37.14278185 4.50530419 31.89733505 4.55806351 C29.90162812 4.57651695 27.90588758 4.59165786 25.91012955 4.60334396 C23.10284753 4.62036227 20.29591888 4.64943305 17.48876953 4.68115234 C16.26632286 4.68439262 16.26632286 4.68439262 15.0191803 4.68769836 C8.71775724 4.77795074 1.71820364 5.14089818 -4 8 C-5.31816785 11.95450356 -5.17768203 15.75319692 -5.20532227 19.87768555 C-5.21522186 20.78520569 -5.22512146 21.69272583 -5.23532104 22.62774658 C-5.2669362 25.63071067 -5.2916936 28.63369058 -5.31640625 31.63671875 C-5.33697576 33.71751825 -5.35797223 35.79831356 -5.37937927 37.87910461 C-5.43460024 43.35845558 -5.48400945 48.83784426 -5.53222656 54.31726074 C-5.58244137 59.90750489 -5.63812755 65.4976942 -5.69335938 71.08789062 C-5.80094127 82.05854692 -5.90238622 93.0292508 -6 104 C-6.33 104 -6.66 104 -7 104 C-7.06953218 91.84758329 -7.12282775 79.69521396 -7.15543652 67.54263878 C-7.17108764 61.89961085 -7.19231608 56.25671909 -7.22631836 50.61376953 C-7.25893115 45.16729012 -7.27685718 39.72094163 -7.28463173 34.2743721 C-7.29017176 32.19715947 -7.30099007 30.11995394 -7.31719017 28.04279709 C-7.3389897 25.13172712 -7.34196584 22.22119715 -7.34057617 19.31005859 C-7.351362 18.45266083 -7.36214783 17.59526306 -7.3732605 16.71188354 C-7.34744486 11.70913413 -6.68190368 8.38568145 -4 4 C-3.01 4 -2.02 4 -1 4 C-1.33 3.34 -1.66 2.68 -2 2 C-1.34 2 -0.68 2 0 2 C0 1.34 0 0.68 0 0 Z " fill="#001BE2" transform="translate(50,50)"/>
<path d="M0 0 C0.99 0.33 1.98 0.66 3 1 C4.72795352 1.06802967 6.45835365 1.08495645 8.1875 1.0625 C9.08855469 1.05347656 9.98960937 1.04445313 10.91796875 1.03515625 C11.94857422 1.01775391 11.94857422 1.01775391 13 1 C13 1.33 13 1.66 13 2 C11.700625 1.979375 10.40125 1.95875 9.0625 1.9375 C3.3256942 2.52845464 0.56261075 5.70930035 -3.25 9.7734375 C-6.41038189 13.7944591 -6.48323514 18.32668589 -7 23.25 C-7.08685059 24.06960205 -7.17370117 24.8892041 -7.26318359 25.73364258 C-8.29819147 36.12935485 -8.65362933 46.56241552 -9 57 C-9.33 57 -9.66 57 -10 57 C-10 40.83 -10 24.66 -10 8 C-10.99 8.495 -10.99 8.495 -12 9 C-12.46651207 11.12576782 -12.46651207 11.12576782 -12.625 13.5625 C-12.69976562 14.38878906 -12.77453125 15.21507812 -12.8515625 16.06640625 C-12.90054688 16.70449219 -12.94953125 17.34257812 -13 18 C-13.33 18 -13.66 18 -14 18 C-14.02703381 16.06257659 -14.04641125 14.12504521 -14.0625 12.1875 C-14.07410156 11.10855469 -14.08570313 10.02960938 -14.09765625 8.91796875 C-14 6 -14 6 -13 3 C-9.53713729 0.46944648 -6.14574629 0.92322692 -2 1 C-1.34 0.67 -0.68 0.34 0 0 Z " fill="#009ADB" transform="translate(167,310)"/>
<path d="M0 0 C3.66065008 -0.07788617 7.00118497 0.00016424 10.63916016 0.50439453 C17.50234878 1.29156716 24.40878233 1.07632842 31.30515671 1.01403427 C33.87748177 0.99182887 36.44973136 0.97787135 39.02212524 0.96633911 C46.32914441 0.93289784 53.63603628 0.89081002 60.94287109 0.82861328 C65.42711699 0.79102581 69.91123865 0.7679672 74.39561844 0.75430679 C76.10131956 0.74624858 77.80700378 0.7326341 79.5126152 0.71337509 C81.88926508 0.68697529 84.26531188 0.67901114 86.64208984 0.67529297 C87.34652222 0.6629361 88.05095459 0.65057922 88.7767334 0.6378479 C93.55864287 0.65763398 93.55864287 0.65763398 95.95986938 2.52029419 C96.30311249 3.00859711 96.64635559 3.49690002 97 4 C95.94039063 3.98839844 94.88078125 3.97679687 93.7890625 3.96484375 C92.40104342 3.95546524 91.01302245 3.94636511 89.625 3.9375 C88.57699219 3.92493164 88.57699219 3.92493164 87.5078125 3.91210938 C83.62704624 3.8164558 83.62704624 3.8164558 80 5 C80 4.34 80 3.68 80 3 C68.78 3 57.56 3 46 3 C45.67 3.99 45.34 4.98 45 6 C41.95613276 6.08226668 39.92824652 5.97608217 37 5 C33.35738941 3.85124673 29.92398948 3.87069792 26.1171875 3.8671875 C25.46170929 3.86623077 24.80623108 3.86527405 24.13088989 3.86428833 C22.75083317 3.86360999 21.37077319 3.8654401 19.99072266 3.86962891 C17.87525317 3.87499936 15.75999432 3.86966348 13.64453125 3.86328125 C12.30208286 3.86394176 10.95963461 3.86522235 9.6171875 3.8671875 C7.78583252 3.86887939 7.78583252 3.86887939 5.91748047 3.87060547 C3.06302785 3.79884266 3.06302785 3.79884266 1 5 C1 4.34 1 3.68 1 3 C-0.65 3 -2.3 3 -4 3 C-2.68 2.67 -1.36 2.34 0 2 C0 1.34 0 0.68 0 0 Z " fill="#0760E8" transform="translate(200,266)"/>
<path d="M0 0 C5.4161022 8.12415329 4.09695619 17.75897514 3 27 C2.67 27.99 2.34 28.98 2 30 C1.96125079 31.66621616 1.9549714 33.33394172 2 35 C0.015625 33.609375 0.015625 33.609375 -2 31 C-2.5096196 27.74024388 -2.37632512 24.53931183 -2.25 21.25 C-2.23195313 20.36183594 -2.21390625 19.47367188 -2.1953125 18.55859375 C-2.14827374 16.37129152 -2.08257009 14.18620184 -2 12 C-2.99 12 -3.98 12 -5 12 C-4.35550393 8.98782888 -3.34977818 6.48344164 -1.9375 3.75 C-1.57527344 3.04359375 -1.21304688 2.3371875 -0.83984375 1.609375 C-0.56269531 1.07828125 -0.28554687 0.5471875 0 0 Z " fill="#0008FE" transform="translate(108,228)"/>
<path d="M0 0 C2.13671875 0.390625 2.13671875 0.390625 4 1 C3.49210937 1.40089844 2.98421875 1.80179688 2.4609375 2.21484375 C-2.70643713 6.48228235 -6.92395296 10.98772624 -10 17 C-10 17.99 -10 18.98 -10 20 C-11.65 20.66 -13.3 21.32 -15 22 C-14.67 22.99 -14.34 23.98 -14 25 C-14.33 25.99 -14.66 26.98 -15 28 C-14.63078302 32.13523019 -14.32378307 34.5143254 -12 38 C-11.375 40.1875 -11.375 40.1875 -11 42 C-14.28452224 41.43370306 -16.01011587 40.71347836 -18 38 C-19.92725115 32.82685218 -20.53524075 28.44161432 -20 23 C-17.56310479 19.80682696 -14.59853516 17.79926758 -11 16 C-10.09274566 13.88672575 -10.09274566 13.88672575 -9.375 11.4375 C-9.11460938 10.61121094 -8.85421875 9.78492188 -8.5859375 8.93359375 C-8.39257812 8.29550781 -8.19921875 7.65742188 -8 7 C-7.01 7 -6.02 7 -5 7 C-4.67 6.01 -4.34 5.02 -4 4 C-2.1875 1.75 -2.1875 1.75 0 0 Z " fill="#0000FF" transform="translate(111,174)"/>
<path d="M0 0 C0.85904434 -0.00014603 1.71808868 -0.00029205 2.60316467 -0.0004425 C5.43297887 0.00025227 8.26272665 0.00802428 11.0925293 0.01586914 C13.0583645 0.01773487 15.02420017 0.01915804 16.99003601 0.02015686 C22.15704641 0.02396986 27.32402857 0.03378977 32.49102783 0.04486084 C37.76639423 0.05510112 43.0417652 0.05966009 48.31713867 0.06469727 C58.66285418 0.07541312 69.00854876 0.09247494 79.35424805 0.11352539 C79.35424805 0.44352539 79.35424805 0.77352539 79.35424805 1.11352539 C78.55102615 1.12161224 77.74780426 1.1296991 76.92024231 1.13803101 C69.34284316 1.2160398 61.76563483 1.30334932 54.18846607 1.40105247 C50.2931606 1.45095352 46.39788143 1.49728394 42.50244141 1.53540039 C38.74164418 1.57233166 34.98107036 1.61871257 31.22046471 1.6715889 C29.78722753 1.69009127 28.35394253 1.70521453 26.92063332 1.71686935 C24.90988353 1.73380233 22.89925848 1.76397011 20.88867188 1.79467773 C19.74505692 1.8080014 18.60144196 1.82132507 17.423172 1.83505249 C14.35644103 2.1133264 12.1283131 2.8136662 9.35424805 4.11352539 C8.85924805 3.12352539 8.85924805 3.12352539 8.35424805 2.11352539 C5.9997613 2.0589813 3.6465693 2.01959749 1.29174805 1.98852539 C-0.01922852 1.96532227 -1.33020508 1.94211914 -2.6809082 1.91821289 C-6.66997106 2.11471845 -9.85398452 2.90887243 -13.64575195 4.11352539 C-15.39094536 4.49066464 -17.14072981 4.84764861 -18.89575195 5.17602539 C-21.59697541 5.6835534 -24.02992194 6.24158205 -26.64575195 7.11352539 C-26.64575195 6.45352539 -26.64575195 5.79352539 -26.64575195 5.11352539 C-24.58422806 4.46458302 -22.52148938 3.81949899 -20.45825195 3.17602539 C-19.30969727 2.81637695 -18.16114258 2.45672852 -16.9777832 2.08618164 C-11.22455283 0.40675097 -5.98453486 -0.02673172 0 0 Z " fill="#004EFB" transform="translate(133.645751953125,145.886474609375)"/>
<path d="M0 0 C22.77 0 45.54 0 69 0 C69 0.66 69 1.32 69 2 C71.31 2 73.62 2 76 2 C76 2.33 76 2.66 76 3 C68.45323249 2.89138097 60.90653729 2.77854844 53.35990906 2.66066074 C49.85389762 2.60601799 46.34787753 2.55270745 42.84179688 2.50268555 C13.02763504 2.0755189 13.02763504 2.0755189 0 1 C0 0.67 0 0.34 0 0 Z " fill="#094DDB" transform="translate(190,53)"/>
<path d="M0 0 C0.33 0 0.66 0 1 0 C1 17.82 1 35.64 1 54 C1.99 54.33 2.98 54.66 4 55 C4.6875 57.0625 4.6875 57.0625 5 59 C4.01 59 3.02 59 2 59 C2 58.34 2 57.68 2 57 C1.34 56.67 0.68 56.34 0 56 C-0.99769829 53.12752717 -1.1263517 50.44068666 -1.12939453 47.41845703 C-1.13254669 46.51717072 -1.13569885 45.6158844 -1.13894653 44.68728638 C-1.1369223 43.72056 -1.13489807 42.75383362 -1.1328125 41.7578125 C-1.13376923 40.75668427 -1.13472595 39.75555603 -1.13571167 38.72409058 C-1.13639174 36.60756365 -1.1345495 34.49103463 -1.13037109 32.37451172 C-1.12503167 29.14415768 -1.13031617 25.9139434 -1.13671875 22.68359375 C-1.13605772 20.62499969 -1.13477604 18.56640573 -1.1328125 16.5078125 C-1.13483673 15.54513458 -1.13686096 14.58245667 -1.13894653 13.59060669 C-1.12281564 8.94609552 -0.9586472 4.56856793 0 0 Z " fill="#0024BE" transform="translate(44,398)"/>
<path d="M0 0 C2.6875 1.625 2.6875 1.625 3.6875 3.625 C5.70419827 4.75850534 5.70419827 4.75850534 7.6875 5.625 C6.6975 6.12 6.6975 6.12 5.6875 6.625 C5.0275 6.33625 4.3675 6.0475 3.6875 5.75 C-0.55974098 4.15728463 -4.81296969 3.95700418 -9.3125 3.625 C-9.9725 5.275 -10.6325 6.925 -11.3125 8.625 C-12.8903125 8.8415625 -12.8903125 8.8415625 -14.5 9.0625 C-17.46710549 9.50026966 -20.38044366 10.00304866 -23.3125 10.625 C-22.714375 10.191875 -22.11625 9.75875 -21.5 9.3125 C-18.33596954 6.8716765 -16.59451062 5.47103187 -15.3125 1.625 C-9.89026253 -1.77966074 -5.9382961 -2.4649531 0 0 Z " fill="#00D7FF" transform="translate(351.3125,268.375)"/>
<path d="M0 0 C3.90094329 5.85141494 4.29347263 13.10339311 4 20 C4 20.33 4 20.66 4 21 C4.33 21 4.66 21 5 21 C5.87648324 30.99664672 6.30338938 40.12017284 4 50 C3.34 50 2.68 50 2 50 C1.97313447 48.02090602 1.95366625 46.04171029 1.9375 44.0625 C1.92589844 42.96035156 1.91429687 41.85820312 1.90234375 40.72265625 C2 38 2 38 3 37 C3.07205511 35.31391034 3.08386068 33.62499341 3.0625 31.9375 C3.04896484 30.55884766 3.04896484 30.55884766 3.03515625 29.15234375 C3.02355469 28.44207031 3.01195312 27.73179687 3 27 C2.34 27.33 1.68 27.66 1 28 C0.67 23.38 0.34 18.76 0 14 C0.66 14 1.32 14 2 14 C0.84826645 11.53199953 -0.04783565 9.95216435 -2 8 C-2.125 4.375 -2.125 4.375 -2 1 C-1.34 0.67 -0.68 0.34 0 0 Z M0 5 C1 8 1 8 1 8 Z " fill="#0B35C5" transform="translate(372,144)"/>
<path d="M0 0 C0.66 0.33 1.32 0.66 2 1 C1.979375 2.11375 1.95875 3.2275 1.9375 4.375 C1.73619282 7.83215921 1.73619282 7.83215921 3 10 C2.34 10 1.68 10 1 10 C1.16749756 10.81549316 1.33499512 11.63098633 1.50756836 12.47119141 C2.07076559 16.50711248 2.02389283 20.40395963 1.87890625 24.4609375 C1.85529526 25.25150543 1.83168427 26.04207336 1.80735779 26.8565979 C1.73124603 29.36293893 1.64699864 31.86892912 1.5625 34.375 C1.50922664 36.08201451 1.45648667 37.78904576 1.40429688 39.49609375 C1.27570269 43.66428149 1.13981524 47.83217418 1 52 C0.67 52 0.34 52 0 52 C-0.33 41.11 -0.66 30.22 -1 19 C-1.33 19 -1.66 19 -2 19 C-3.37197713 13.35964956 -3.06656853 7.67599947 -2 2 C-1.34 1.34 -0.68 0.68 0 0 Z M-1 10 C0 12 0 12 0 12 Z " fill="#00FFFB" transform="translate(156,317)"/>
<path d="M0 0 C0.33 0 0.66 0 1 0 C0.67 14.19 0.34 28.38 0 43 C-2.46105545 39.30841682 -2.25575793 36.53376446 -2.1953125 32.26953125 C-2.1924826 31.51911057 -2.18965271 30.76868988 -2.18673706 29.99552917 C-2.17555062 27.60102325 -2.15044928 25.20689269 -2.125 22.8125 C-2.11496819 21.18815645 -2.10584269 19.56380703 -2.09765625 17.93945312 C-2.07561637 13.959491 -2.0410974 9.97980912 -2 6 C-1.34 6 -0.68 6 0 6 C0 4.02 0 2.04 0 0 Z " fill="#012ED5" transform="translate(45,148)"/>
<path d="M0 0 C0.33 1.32 0.66 2.64 1 4 C0.01 4.495 0.01 4.495 -1 5 C-1.72159424 6.64363134 -2.39351421 8.31050386 -3 10 C-4.65 9.01 -6.3 8.02 -8 7 C-9.58272601 8.58272601 -9.34735747 10.38034003 -9.5625 12.5625 C-9.64628906 13.38878906 -9.73007813 14.21507812 -9.81640625 15.06640625 C-9.87699219 15.70449219 -9.93757812 16.34257812 -10 17 C-10.33 17 -10.66 17 -11 17 C-11.02703381 15.06257659 -11.04641125 13.12504521 -11.0625 11.1875 C-11.07410156 10.10855469 -11.08570313 9.02960938 -11.09765625 7.91796875 C-11 5 -11 5 -10 2 C-6.75515269 -0.28341107 -3.87540045 -0.17615457 0 0 Z " fill="#00F5FF" transform="translate(164,311)"/>
<path d="M0 0 C2.25 0.5 2.25 0.5 5 2 C6.23681505 4.01663743 7.18069341 6.0464828 8.10546875 8.22265625 C8.87092844 10.18458539 8.87092844 10.18458539 11 11 C10.67 12.32 10.34 13.64 10 15 C6.58470886 14.7153924 5.21501576 14.20339329 2.6875 11.8125 C0.71918298 8.53197164 0.75496542 6.75719685 1 3 C0.67 2.01 0.34 1.02 0 0 Z " fill="#0000FD" transform="translate(229,168)"/>
<path d="M0 0 C-2.65776575 2.65776575 -4.42278026 2.45409799 -8.125 2.875 C-16.69606604 4.09403806 -22.80703932 6.95449076 -29 13 C-30.39819512 15.6514482 -30.39819512 15.6514482 -31 18 C-31.66 18 -32.32 18 -33 18 C-33.33 18.66 -33.66 19.32 -34 20 C-34 15.53532304 -32.62930117 13.16715654 -29.6875 10 C-20.73706422 1.718458 -12.07051347 -1.05130279 0 0 Z " fill="#015BF8" transform="translate(268,125)"/>
<path d="M0 0 C1 2 1 2 0.0625 5.8125 C-1.18632135 10.94099302 -1.11702892 15.82812129 -0.97265625 21.08203125 C-0.99645145 23.62131904 -1.24826773 25.59329125 -2 28 C-1.34 28.33 -0.68 28.66 0 29 C0 30.32 0 31.64 0 33 C0.66 33.33 1.32 33.66 2 34 C2 34.99 2 35.98 2 37 C-1.81743277 33.81880602 -3.14688329 30.77400667 -4 26 C-4.15855469 25.12085938 -4.31710937 24.24171875 -4.48046875 23.3359375 C-5.56680765 15.18301785 -4.03986094 8.59965236 -1 1 C-0.67 0.67 -0.34 0.34 0 0 Z M-3 12 C-3 15.3 -3 18.6 -3 22 C-2.67 22 -2.34 22 -2 22 C-2 18.7 -2 15.4 -2 12 C-2.33 12 -2.66 12 -3 12 Z " fill="#0345DD" transform="translate(20,229)"/>
<path d="M0 0 C0.66 0 1.32 0 2 0 C2.28571429 7.42857143 2.28571429 7.42857143 0 11 C-2.3431213 10.74438677 -4.67843403 10.40729228 -7 10 C-7.33 9.34 -7.66 8.68 -8 8 C-5.78071806 5.09197539 -4.07030857 3.04687238 -1 1 C-0.67 0.67 -0.34 0.34 0 0 Z " fill="#0002FF" transform="translate(234,116)"/>
<path d="M0 0 C3.14565046 -0.08845016 6.29097375 -0.14086835 9.4375 -0.1875 C10.31599609 -0.21263672 11.19449219 -0.23777344 12.09960938 -0.26367188 C17.98817442 -0.32885894 23.74777797 0.07924107 29 3 C29.33 3.99 29.66 4.98 30 6 C27.69 6 25.38 6 23 6 C23 5.01 23 4.02 23 3 C21.6696875 3.061875 21.6696875 3.061875 20.3125 3.125 C17.02722987 3.00102754 14.94550705 2.38612096 12 1 C11.67 1.66 11.34 2.32 11 3 C11 2.34 11 1.68 11 1 C5.86523753 2.12385353 5.86523753 2.12385353 1 4 C0.67 2.68 0.34 1.36 0 0 Z " fill="#0034F9" transform="translate(45,192)"/>
<path d="M0 0 C3.44199378 4.58932504 3.27073041 6.88964046 2.85546875 12.265625 C2.80683182 13.05902283 2.75819489 13.85242065 2.70808411 14.66986084 C2.54963968 17.19781277 2.36888375 19.72360063 2.1875 22.25 C2.07599879 23.96605062 1.96595561 25.68219664 1.85742188 27.3984375 C1.58850597 31.60025168 1.29957436 35.80026485 1 40 C0.67 40 0.34 40 0 40 C0 26.8 0 13.6 0 0 Z " fill="#0090B5" transform="translate(157,327)"/>
<path d="M0 0 C0.66 0.33 1.32 0.66 2 1 C1.8903028 5.10472658 1.75963024 9.20852148 1.625 13.3125 C1.5940625 14.47974609 1.563125 15.64699219 1.53125 16.84960938 C1.49257812 17.96787109 1.45390625 19.08613281 1.4140625 20.23828125 C1.36693115 21.7857605 1.36693115 21.7857605 1.31884766 23.36450195 C1 26 1 26 -1 29 C-1.95192877 18.9790201 -2.06170091 9.95068867 0 0 Z " fill="#044EEA" transform="translate(140,308)"/>
<path d="M0 0 C4.87144102 2.01689044 8.20042712 4.26477385 11.71484375 8.28125 C12.47796875 9.044375 13.24109375 9.8075 14.02734375 10.59375 C14.58421875 11.150625 15.14109375 11.7075 15.71484375 12.28125 C15.38484375 12.94125 15.05484375 13.60125 14.71484375 14.28125 C14.13476562 13.66636719 13.5546875 13.05148437 12.95703125 12.41796875 C6.17407613 4.98335658 6.17407613 4.98335658 -3.09765625 2.1171875 C-5.83559948 2.09623385 -8.55070536 2.14987958 -11.28515625 2.28125 C-11.28515625 1.62125 -11.28515625 0.96125 -11.28515625 0.28125 C-7.59850609 -1.56207508 -3.87964262 -1.22026366 0 0 Z " fill="#00CDF1" transform="translate(180.28515625,308.71875)"/>
<path d="M0 0 C0.99 0.33 1.98 0.66 3 1 C2.34 1 1.68 1 1 1 C0.67 2.65 0.34 4.3 0 6 C-1.051875 6.28875 -2.10375 6.5775 -3.1875 6.875 C-6.82450325 7.86900016 -6.82450325 7.86900016 -9.5 9.0625 C-12.63060038 10.23647514 -15.68947735 10.61052675 -19 11 C-19 10.34 -19 9.68 -19 9 C-18.01 9 -17.02 9 -16 9 C-16 8.34 -16 7.68 -16 7 C-14.35 7.33 -12.7 7.66 -11 8 C-11 7.34 -11 6.68 -11 6 C-10.28972656 5.65066406 -9.57945312 5.30132812 -8.84765625 4.94140625 C-7.92855469 4.48636719 -7.00945312 4.03132813 -6.0625 3.5625 C-5.14597656 3.11003906 -4.22945313 2.65757812 -3.28515625 2.19140625 C-1.09471096 1.19474606 -1.09471096 1.19474606 0 0 Z " fill="#0028FA" transform="translate(331,256)"/>
<path d="M0 0 C2.13671875 0.390625 2.13671875 0.390625 4 1 C3.49210937 1.40089844 2.98421875 1.80179688 2.4609375 2.21484375 C-2.70643713 6.48228235 -6.92395296 10.98772624 -10 17 C-10 17.99 -10 18.98 -10 20 C-10.99 20.33 -11.98 20.66 -13 21 C-13 19.35 -13 17.7 -13 16 C-12.34 16 -11.68 16 -11 16 C-10.01 13.03 -9.02 10.06 -8 7 C-7.01 7 -6.02 7 -5 7 C-4.67 6.01 -4.34 5.02 -4 4 C-2.1875 1.75 -2.1875 1.75 0 0 Z " fill="#002DF7" transform="translate(111,174)"/>
<path d="M0 0 C3.63 0.33 7.26 0.66 11 1 C10.01 1.66 9.02 2.32 8 3 C8 3.66 8 4.32 8 5 C7.30132812 5.13277344 6.60265625 5.26554687 5.8828125 5.40234375 C4.97273438 5.57894531 4.06265625 5.75554688 3.125 5.9375 C1.76761719 6.19853516 1.76761719 6.19853516 0.3828125 6.46484375 C-3.2906317 7.28986319 -3.82129046 7.73193569 -6 11 C-5.67 9.02 -5.34 7.04 -5 5 C-3.68 4.67 -2.36 4.34 -1 4 C-1.33 3.34 -1.66 2.68 -2 2 C-1.34 2 -0.68 2 0 2 C0 1.34 0 0.68 0 0 Z " fill="#0849C3" transform="translate(50,50)"/>
<path d="M0 0 C0.33 0 0.66 0 1 0 C1.87648324 9.99664672 2.30338938 19.12017284 0 29 C-0.66 29 -1.32 29 -2 29 C-2.02686553 27.02090602 -2.04633375 25.04171029 -2.0625 23.0625 C-2.07410156 21.96035156 -2.08570313 20.85820312 -2.09765625 19.72265625 C-2 17 -2 17 -1 16 C-0.90080923 14.39836084 -0.87030102 12.79220082 -0.875 11.1875 C-0.87242187 10.31480469 -0.86984375 9.44210938 -0.8671875 8.54296875 C-0.90253439 6.02696727 -0.90253439 6.02696727 -1.6328125 3.80078125 C-1.75398438 3.20652344 -1.87515625 2.61226562 -2 2 C-1.34 1.34 -0.68 0.68 0 0 Z " fill="#0017CB" transform="translate(376,165)"/>
<path d="M0 0 C-1.1875 1.5625 -1.1875 1.5625 -3 3 C-5.6875 2.6875 -5.6875 2.6875 -8 2 C-8.33 3.65 -8.66 5.3 -9 7 C-11.97 6.505 -11.97 6.505 -15 6 C-15 5.34 -15 4.68 -15 4 C-19.455 3.01 -19.455 3.01 -24 2 C-20.77361755 0.92453918 -18.56821346 0.9646932 -15.1875 1.0625 C-10.00235759 1.12512249 -4.66813845 -1.55604615 0 0 Z M-13 3 C-12.67 3.66 -12.34 4.32 -12 5 C-11.01 5 -10.02 5 -9 5 C-9 4.34 -9 3.68 -9 3 C-10.32 3 -11.64 3 -13 3 Z " fill="#0030FC" transform="translate(277,186)"/>
<path d="M0 0 C0.33 0 0.66 0 1 0 C1 1.65 1 3.3 1 5 C0.34 5 -0.32 5 -1 5 C-1.17015625 5.54527344 -1.3403125 6.09054688 -1.515625 6.65234375 C-3.30491666 12.22008643 -5.16769989 17.86287268 -8 23 C-8.66 23.33 -9.32 23.66 -10 24 C-8.76769603 17.0542867 -6.73475229 11.03306139 -3 5 C-2.34 4.67 -1.68 4.34 -1 4 C-0.34786708 1.97536745 -0.34786708 1.97536745 0 0 Z " fill="#0058F0" transform="translate(84,171)"/>
<path d="M0 0 C0 3.66666667 0 7.33333333 0 11 C-4.455 12.485 -4.455 12.485 -9 14 C-8 10 -8 10 -6 8 C-5.01 7.67 -4.02 7.34 -3 7 C-3.0928125 5.824375 -3.0928125 5.824375 -3.1875 4.625 C-3.125625 3.75875 -3.06375 2.8925 -3 2 C-2.01 1.34 -1.02 0.68 0 0 Z " fill="#0012FF" transform="translate(155,283)"/>
<path d="M0 0 C0.66 0.33 1.32 0.66 2 1 C1.49375271 7.74996389 -1.61257302 12.89679052 -6.625 17.3125 C-7.40875 17.869375 -8.1925 18.42625 -9 19 C-10.0173873 19.98230498 -11.02596117 20.97469597 -12 22 C-12 17.93532214 -10.48214345 17.12041528 -7.6875 14.25 C-1.90366272 8.0529265 -1.90366272 8.0529265 0 0 Z " fill="#0048F3" transform="translate(104,269)"/>
<path d="M0 0 C-1 3 -1 3 -2.9375 4.1875 C-7.29934317 5.3447237 -11.5139128 5.15679528 -16 5 C-16 4.34 -16 3.68 -16 3 C-5.62642369 -0.44419134 -5.62642369 -0.44419134 0 0 Z " fill="#00B1E7" transform="translate(324,280)"/>
<path d="M0 0 C0.66 0 1.32 0 2 0 C3.47265625 2.046875 3.47265625 2.046875 5.0625 4.75 C5.85333984 6.07257813 5.85333984 6.07257813 6.66015625 7.421875 C7.82839487 9.6697977 8.53220782 11.52820924 9 14 C8.01 14.33 7.02 14.66 6 15 C5.28385417 13.27473958 4.56770833 11.54947917 3.8515625 9.82421875 C2.93193308 7.73466068 2.93193308 7.73466068 1 5 C0.61500109 3.34450469 0.27206865 1.6777567 0 0 Z " fill="#0539DE" transform="translate(355,109)"/>
<path d="M0 0 C-0.99 0.66 -1.98 1.32 -3 2 C-3.33 2.66 -3.66 3.32 -4 4 C-6.50390625 4.6328125 -6.50390625 4.6328125 -9.5625 5.125 C-11.08037109 5.37636719 -11.08037109 5.37636719 -12.62890625 5.6328125 C-13.80259766 5.81457031 -13.80259766 5.81457031 -15 6 C-15 5.34 -15 4.68 -15 4 C-15.99 3.67 -16.98 3.34 -18 3 C-12.125 2 -12.125 2 -11 2 C-8.99486918 1.20424181 -7.00021475 0.385698 -5.0078125 -0.44140625 C-3 -1 -3 -1 0 0 Z " fill="#0769F5" transform="translate(315,264)"/>
<path d="M0 0 C0.66 0.33 1.32 0.66 2 1 C2 1.99 2 2.98 2 4 C2.33 4.99 2.66 5.98 3 7 C2.34 7 1.68 7 1 7 C1 6.34 1 5.68 1 5 C0.01 5.495 0.01 5.495 -1 6 C-1 6.99 -1 7.98 -1 9 C-2.32 8.67 -3.64 8.34 -5 8 C-5.33 8.66 -5.66 9.32 -6 10 C-6.99 9.67 -7.98 9.34 -9 9 C-4.56923077 3.21538462 -4.56923077 3.21538462 -1.6875 2.125 C-1.130625 2.08375 -0.57375 2.0425 0 2 C0 1.34 0 0.68 0 0 Z " fill="#053EF6" transform="translate(172,269)"/>
<path d="M0 0 C1.5159375 0.2475 1.5159375 0.2475 3.0625 0.5 C8.53648874 1.20632113 14.00329769 1.02752527 19.51171875 0.9375 C22.51342212 0.99128192 25.09589433 1.28924374 28 2 C28 2.33 28 2.66 28 3 C8.06839945 5.37893297 8.06839945 5.37893297 0 0 Z " fill="#003CF5" transform="translate(245,203)"/>
<path d="M0 0 C0.33 0 0.66 0 1 0 C1.19397476 1.97854258 1.38001321 3.9578648 1.5625 5.9375 C1.66691406 7.03964844 1.77132813 8.14179688 1.87890625 9.27734375 C1.91886719 10.17582031 1.95882813 11.07429687 2 12 C1.67 12.33 1.34 12.66 1 13 C0.76807135 14.51469448 0.58784762 16.03754562 0.4375 17.5625 C0.35371094 18.38878906 0.26992188 19.21507812 0.18359375 20.06640625 C0.12300781 20.70449219 0.06242187 21.34257812 0 22 C-0.33 22 -0.66 22 -1 22 C-1.02903577 18.89585298 -1.0468107 15.79174091 -1.0625 12.6875 C-1.07087891 11.80642578 -1.07925781 10.92535156 -1.08789062 10.01757812 C-1.09111328 9.17001953 -1.09433594 8.32246094 -1.09765625 7.44921875 C-1.10289307 6.66893311 -1.10812988 5.88864746 -1.11352539 5.0847168 C-1 3 -1 3 0 0 Z " fill="#145CD1" transform="translate(374,169)"/>
<path d="M0 0 C0.99 0.66 1.98 1.32 3 2 C-0.38018531 3.04005702 -3.4780279 3.08004482 -7 3 C-7.33 4.32 -7.66 5.64 -8 7 C-8.33 6.01 -8.66 5.02 -9 4 C-9.66 3.67 -10.32 3.34 -11 3 C-7.48991846 -0.36967828 -4.74988885 -0.43180808 0 0 Z " fill="#0007FF" transform="translate(69,297)"/>
<path d="M0 0 C0.66 0.33 1.32 0.66 2 1 C0.58956521 4.36165806 -1.01526034 6.09505232 -3.9375 8.25 C-4.62714844 8.77078125 -5.31679687 9.2915625 -6.02734375 9.828125 C-8 11 -8 11 -11 11 C-8.88225857 6.76451714 -7.37031527 5.61011615 -3 4 C-2.67 3.01 -2.34 2.02 -2 1 C-1.67 1.33 -1.34 1.66 -1 2 C-0.67 1.34 -0.34 0.68 0 0 Z " fill="#00D7F2" transform="translate(245,329)"/>
<path d="M0 0 C1.65 0.33 3.3 0.66 5 1 C1.83047153 4.26008643 -1.39937989 7.22237877 -5 10 C-5.66 9.67 -6.32 9.34 -7 9 C-6.3125 6.5625 -6.3125 6.5625 -5 4 C-2.375 3.1875 -2.375 3.1875 0 3 C0 2.01 0 1.02 0 0 Z " fill="#00CEF7" transform="translate(259,317)"/>
<path d="M0 0 C0.33 0 0.66 0 1 0 C1.33 4.95 1.66 9.9 2 15 C2.99 15.33 3.98 15.66 5 16 C5.6875 18.0625 5.6875 18.0625 6 20 C5.01 20 4.02 20 3 20 C3 19.34 3 18.68 3 18 C2.34 17.67 1.68 17.34 1 17 C-0.32421988 13.5020607 -0.09945529 9.94552923 -0.0625 6.25 C-0.05347656 5.07953125 -0.04445312 3.9090625 -0.03515625 2.703125 C-0.02355469 1.81109375 -0.01195312 0.9190625 0 0 Z " fill="#000A5A" transform="translate(43,437)"/>
<path d="M0 0 C1.98 0 3.96 0 6 0 C5.67 0.66 5.34 1.32 5 2 C4.690625 2.66 4.38125 3.32 4.0625 4 C3 6 3 6 1 8 C0.01 6.68 -0.98 5.36 -2 4 C-1.34 2.68 -0.68 1.36 0 0 Z " fill="#009FF9" transform="translate(159,313)"/>
<path d="M0 0 C-1 3 -1 3 -3.4375 4.875 C-6.17702754 7.14680333 -6.9765183 8.65042354 -8 12 C-8.66 12 -9.32 12 -10 12 C-10.33 12.66 -10.66 13.32 -11 14 C-11 9.15854118 -9.32989474 6.94557115 -6.0625 3.625 C-2.32209738 0 -2.32209738 0 0 0 Z " fill="#0085FC" transform="translate(245,131)"/>
<path d="M0 0 C4.62 0 9.24 0 14 0 C14 0.66 14 1.32 14 2 C16.31 2 18.62 2 21 2 C21 2.33 21 2.66 21 3 C13.64657821 3.20177072 7.05112439 3.21211746 0 1 C0 0.67 0 0.34 0 0 Z " fill="#1048CA" transform="translate(245,53)"/>
<path d="M0 0 C2.10827055 3.16240582 2.33817465 4.50657469 2.625 8.1875 C2.69976562 9.08855469 2.77453125 9.98960937 2.8515625 10.91796875 C2.90054688 11.60503906 2.94953125 12.29210937 3 13 C2.01 13.495 2.01 13.495 1 14 C-1.20808081 8.80451575 -0.93402724 5.41735797 0 0 Z " fill="#0079FD" transform="translate(230,152)"/>
<path d="M0 0 C-0.5625 1.9375 -0.5625 1.9375 -2 4 C-5.3125 4.6875 -5.3125 4.6875 -9 5 C-10.66934283 5.31966139 -12.3373217 5.64731066 -14 6 C-13.401875 5.566875 -12.80375 5.13375 -12.1875 4.6875 C-10.0005787 3.14583219 -10.0005787 3.14583219 -8.6875 1.3125 C-5.98683904 -0.78801408 -3.29221868 -0.186352 0 0 Z " fill="#00C2F5" transform="translate(342,273)"/>
<path d="M0 0 C-3.15024182 1.13408706 -5.53480017 0.81257787 -8.78515625 0.2578125 C-13.49441287 -0.29035494 -18.26616255 -0.06995819 -23 0 C-23 -0.33 -23 -0.66 -23 -1 C-15.17826956 -2.76483087 -7.56702403 -2.69049743 0 0 Z " fill="#0032F1" transform="translate(68,210)"/>
<path d="M0 0 C6.93 0.495 6.93 0.495 14 1 C13.67 1.99 13.34 2.98 13 4 C9.95613276 4.08226668 7.92824652 3.97608217 5 3 C4.29875 2.855625 3.5975 2.71125 2.875 2.5625 C2.25625 2.376875 1.6375 2.19125 1 2 C0.67 1.34 0.34 0.68 0 0 Z " fill="#006AFE" transform="translate(232,268)"/>
<path d="M0 0 C0.66 0.33 1.32 0.66 2 1 C1.01 5.29 0.02 9.58 -1 14 C-1.99 14 -2.98 14 -4 14 C-3.34 13.67 -2.68 13.34 -2 13 C-2.33 12.01 -2.66 11.02 -3 10 C-2.34 10 -1.68 10 -1 10 C-1.20625 9.46375 -1.4125 8.9275 -1.625 8.375 C-2.1314747 5.16732692 -1.15400225 2.98682934 0 0 Z " fill="#0051EB" transform="translate(294,155)"/>
<path d="M0 0 C3.96 1.98 7.92 3.96 12 6 C8 7 8 7 5 7 C4.34 6.34 3.68 5.68 3 5 C2.46375 4.505 1.9275 4.01 1.375 3.5 C0 2 0 2 0 0 Z " fill="#0431E8" transform="translate(311,70)"/>
<path d="M0 0 C2.64 0 5.28 0 8 0 C8 0.66 8 1.32 8 2 C9.32 2.66 10.64 3.32 12 4 C11.01 4.495 11.01 4.495 10 5 C8.32700041 4.34938905 6.66140763 3.67966676 5 3 C3.0075675 2.62406934 1.0081326 2.28020455 -1 2 C-0.67 1.34 -0.34 0.68 0 0 Z " fill="#00C1EB" transform="translate(347,270)"/>
<path d="M0 0 C0.66 0.33 1.32 0.66 2 1 C2 1.99 2 2.98 2 4 C1.01 4.33 0.02 4.66 -1 5 C-1.99 6.485 -1.99 6.485 -3 8 C-3.66 8 -4.32 8 -5 8 C-5.33 7.01 -5.66 6.02 -6 5 C-4.02 3.35 -2.04 1.7 0 0 Z " fill="#00BEC6" transform="translate(331,347)"/>
<path d="M0 0 C1.32 0 2.64 0 4 0 C3.67 0.99 3.34 1.98 3 3 C-0.3 3.66 -3.6 4.32 -7 5 C-7.33 4.34 -7.66 3.68 -8 3 C-7.01 3 -6.02 3 -5 3 C-5 2.34 -5 1.68 -5 1 C-3.35 1.33 -1.7 1.66 0 2 C0 1.34 0 0.68 0 0 Z " fill="#001BFF" transform="translate(320,262)"/>
<path d="M0 0 C0.33 0.66 0.66 1.32 1 2 C0.33333333 3.33333333 -0.33333333 4.66666667 -1 6 C-1.45064632 8.58532701 -1.45064632 8.58532701 -1.625 11.25 C-1.69976562 12.14203125 -1.77453125 13.0340625 -1.8515625 13.953125 C-1.90054688 14.62859375 -1.94953125 15.3040625 -2 16 C-2.33 16 -2.66 16 -3 16 C-3.02703381 14.06257659 -3.04641125 12.12504521 -3.0625 10.1875 C-3.07410156 9.10855469 -3.08570313 8.02960938 -3.09765625 6.91796875 C-3 4 -3 4 -2 1 C-1.34 0.67 -0.68 0.34 0 0 Z " fill="#0000FF" transform="translate(156,312)"/>
<path d="M0 0 C0.80824219 0.19464844 1.61648438 0.38929688 2.44921875 0.58984375 C3.06410156 0.74582031 3.67898438 0.90179688 4.3125 1.0625 C4.3125 1.3925 4.3125 1.7225 4.3125 2.0625 C0.3125 2.0625 -3.6875 2.0625 -7.6875 2.0625 C-7.6875 1.4025 -7.6875 0.7425 -7.6875 0.0625 C-4.39053895 -1.03648702 -3.28255097 -0.80874444 0 0 Z " fill="#008AD2" transform="translate(349.6875,271.9375)"/>
<path d="M0 0 C3.63 0.33 7.26 0.66 11 1 C11 1.33 11 1.66 11 2 C8.36 2 5.72 2 3 2 C2.67 2.66 2.34 3.32 2 4 C0.68 3.67 -0.64 3.34 -2 3 C-1.34 2.67 -0.68 2.34 0 2 C0 1.34 0 0.68 0 0 Z " fill="#0018B2" transform="translate(50,50)"/>
<path d="M0 0 C0.66 0 1.32 0 2 0 C1.56802365 4.7517398 0.67230705 6.92000054 -3 10 C-2.69201674 8.51988629 -2.378482 7.04092675 -2.0625 5.5625 C-1.88847656 4.73878906 -1.71445313 3.91507813 -1.53515625 3.06640625 C-1 1 -1 1 0 0 Z " fill="#0032E9" transform="translate(77,185)"/>
<path d="M0 0 C3.4117126 0.37083833 6.68901795 1.10858176 10 2 C9.01 2 8.02 2 7 2 C6.67 2.66 6.34 3.32 6 4 C3.36 3.34 0.72 2.68 -2 2 C-1.34 1.34 -0.68 0.68 0 0 Z " fill="#0020BF" transform="translate(87,447)"/>
<path d="M0 0 C0.66 0.33 1.32 0.66 2 1 C1.34 2.98 0.68 4.96 0 7 C-0.99 6.67 -1.98 6.34 -3 6 C-2 4 -1 2 0 0 Z " fill="#0091D9" transform="translate(287,297)"/>
<path d="M0 0 C1.65 0.33 3.3 0.66 5 1 C4.67 1.99 4.34 2.98 4 4 C2.02 4 0.04 4 -2 4 C-1.34 2.68 -0.68 1.36 0 0 Z " fill="#0025FF" transform="translate(79,274)"/>
<path d="M0 0 C1.5625 1.25 1.5625 1.25 3 3 C2.6875 5.1875 2.6875 5.1875 2 7 C1.01 7 0.02 7 -1 7 C-0.67 4.69 -0.34 2.38 0 0 Z " fill="#0C7AFF" transform="translate(307,169)"/>
<path d="M0 0 C3.36591866 1.44253657 5.51047079 3.33264727 8 6 C7.67 6.66 7.34 7.32 7 8 C5.83035398 6.8572081 4.66435444 5.71068285 3.5 4.5625 C2.8503125 3.92441406 2.200625 3.28632813 1.53125 2.62890625 C0 1 0 1 0 0 Z " fill="#00B2D7" transform="translate(199,326)"/>
<path d="M0 0 C0.66 0.33 1.32 0.66 2 1 C-1.465 3.97 -1.465 3.97 -5 7 C-3.92643531 2.70574125 -3.4915227 2.25259529 0 0 Z " fill="#002ECE" transform="translate(30,216)"/>
<path d="M0 0 C3.63 0 7.26 0 11 0 C11 0.33 11 0.66 11 1 C7.37 1 3.74 1 0 1 C0 0.67 0 0.34 0 0 Z " fill="#0000E7" transform="translate(48,285)"/>
<path d="M0 0 C5.75 1.75 5.75 1.75 8 4 C4.31245243 3.50168276 2.39509338 2.89932357 0 0 Z " fill="#0039D8" transform="translate(245,183)"/>
<path d="M0 0 C0.66 0.33 1.32 0.66 2 1 C1.67 1.66 1.34 2.32 1 3 C-0.65 2.67 -2.3 2.34 -4 2 C-2.125 0.9375 -2.125 0.9375 0 0 Z " fill="#0000FF" transform="translate(282,270)"/>
<path d="M0 0 C1.98 0.99 1.98 0.99 4 2 C4 2.99 4 3.98 4 5 C2.68 3.35 1.36 1.7 0 0 Z " fill="#0031F3" transform="translate(81,220)"/>
<path d="M0 0 C2.97 0 5.94 0 9 0 C9 0.33 9 0.66 9 1 C6.03 1 3.06 1 0 1 C0 0.67 0 0.34 0 0 Z " fill="#000000" transform="translate(71,51)"/>
<path d="M0 0 C0.66 0.33 1.32 0.66 2 1 C1.01 1.99 0.02 2.98 -1 4 C-1.66 3.67 -2.32 3.34 -3 3 C-2.01 2.01 -1.02 1.02 0 0 Z " fill="#00E3F5" transform="translate(287,380)"/>
<path d="M0 0 C0.66 0.33 1.32 0.66 2 1 C1.01 1.99 0.02 2.98 -1 4 C-1.66 3.67 -2.32 3.34 -3 3 C-2.01 2.01 -1.02 1.02 0 0 Z " fill="#00A4D4" transform="translate(339,341)"/>
<path d="M0 0 C0.66 0.33 1.32 0.66 2 1 C1.01 1.99 0.02 2.98 -1 4 C-1.66 3.67 -2.32 3.34 -3 3 C-2.01 2.01 -1.02 1.02 0 0 Z " fill="#00DFF4" transform="translate(348,334)"/>
<path d="M0 0 C0.33 0.99 0.66 1.98 1 3 C-0.32 3.33 -1.64 3.66 -3 4 C-2.01 2.68 -1.02 1.36 0 0 Z " fill="#0094A4" transform="translate(362,323)"/>
<path d="M0 0 C2.4375 0.375 2.4375 0.375 5 1 C5.33 1.66 5.66 2.32 6 3 C4.02 2.34 2.04 1.68 0 1 C0 0.67 0 0.34 0 0 Z " fill="#000FFF" transform="translate(68,211)"/>
<path d="M0 0 C1.32 0 2.64 0 4 0 C4 0.66 4 1.32 4 2 C3.01 2.33 2.02 2.66 1 3 C0.67 2.01 0.34 1.02 0 0 Z " fill="#0000FF" transform="translate(284,271)"/>
<path d="M0 0 C0.66 0.33 1.32 0.66 2 1 C0.02 1.99 0.02 1.99 -2 3 C-1.34 2.01 -0.68 1.02 0 0 Z " fill="#00FFFF" transform="translate(329,354)"/>
<path d="M0 0 C0.33 0 0.66 0 1 0 C1 1.98 1 3.96 1 6 C0.67 6 0.34 6 0 6 C0 4.02 0 2.04 0 0 Z " fill="#007F55" transform="translate(370,302)"/>
<path d="M0 0 C0.99 0.33 1.98 0.66 3 1 C2.67 1.66 2.34 2.32 2 3 C1.34 2.01 0.68 1.02 0 0 Z " fill="#006EF2" transform="translate(196,323)"/>
<path d="M0 0 C0.99 0.33 1.98 0.66 3 1 C2.67 1.66 2.34 2.32 2 3 C1.34 2.01 0.68 1.02 0 0 Z " fill="#0093F6" transform="translate(284,135)"/>
<path d="M0 0 C0.66 0.33 1.32 0.66 2 1 C1.01 1 0.02 1 -1 1 C-0.67 0.67 -0.34 0.34 0 0 Z " fill="#00B7B7" transform="translate(302,369)"/>
<path d="M0 0 C0.66 0.33 1.32 0.66 2 1 C1.01 1 0.02 1 -1 1 C-0.67 0.67 -0.34 0.34 0 0 Z " fill="#009BBF" transform="translate(319,356)"/>
<path d="M0 0 C0.66 0.33 1.32 0.66 2 1 C1.01 1 0.02 1 -1 1 C-0.67 0.67 -0.34 0.34 0 0 Z " fill="#00B4DF" transform="translate(334,345)"/>
<path d="M0 0 C0.66 0.33 1.32 0.66 2 1 C1.01 1 0.02 1 -1 1 C-0.67 0.67 -0.34 0.34 0 0 Z " fill="#00DCE5" transform="translate(232,341)"/>
<path d="M0 0 C0.66 0.33 1.32 0.66 2 1 C1.01 1 0.02 1 -1 1 C-0.67 0.67 -0.34 0.34 0 0 Z " fill="#00CFDF" transform="translate(343,338)"/>
<path d="M0 0 C0.66 0.33 1.32 0.66 2 1 C1.01 1 0.02 1 -1 1 C-0.67 0.67 -0.34 0.34 0 0 Z " fill="#00FFFF" transform="translate(257,318)"/>
<path d="M0 0 C4 1 4 1 4 1 Z " fill="#0000BF" transform="translate(44,284)"/>
<path d="M0 0 C4 1 4 1 4 1 Z " fill="#003FFF" transform="translate(273,204)"/>
<path d="M0 0 C1 4 1 4 1 4 Z " fill="#003FBF" transform="translate(373,198)"/>
<path d="M0 0 C0.99 0.33 1.98 0.66 3 1 C2.01 1 1.02 1 0 1 C0 0.67 0 0.34 0 0 Z " fill="#0035FF" transform="translate(235,198)"/>
<path d="M0 0 C0.99 0.33 1.98 0.66 3 1 C2.01 1 1.02 1 0 1 C0 0.67 0 0.34 0 0 Z " fill="#0000FF" transform="translate(293,119)"/>
<path d="M0 0 C3 1 3 1 3 1 Z " fill="#0000FF" transform="translate(81,451)"/>
<path d="M0 0 C0.66 0.66 1.32 1.32 2 2 C1.34 2 0.68 2 0 2 C0 1.34 0 0.68 0 0 Z " fill="#0000FF" transform="translate(97,449)"/>
<path d="M0 0 C0.66 0 1.32 0 2 0 C1.67 0.66 1.34 1.32 1 2 C0.67 1.34 0.34 0.68 0 0 Z " fill="#009BE2" transform="translate(212,339)"/>
<path d="" fill="#0055AA" transform="translate(0,0)"/>
<path d="M0 0 C3 1 3 1 3 1 Z " fill="#0000FF" transform="translate(37,212)"/>
<path d="M0 0 C3 1 3 1 3 1 Z " fill="#0055FF" transform="translate(42,210)"/>
<path d="" fill="#0055AA" transform="translate(0,0)"/>
<path d="" fill="#0055FF" transform="translate(0,0)"/>
<path d="M0 0 C3 1 3 1 3 1 Z " fill="#0000FF" transform="translate(54,206)"/>
<path d="" fill="#0000FF" transform="translate(0,0)"/>
<path d="M0 0 C3 1 3 1 3 1 Z " fill="#0046FF" transform="translate(277,203)"/>
<path d="M0 0 C3 1 3 1 3 1 Z " fill="#0046FF" transform="translate(242,202)"/>
<path d="" fill="#007FFF" transform="translate(0,0)"/>
<path d="" fill="#007FFF" transform="translate(0,0)"/>
<path d="" fill="#0055AA" transform="translate(0,0)"/>
<path d="M0 0 C0.66 0 1.32 0 2 0 C1.67 0.66 1.34 1.32 1 2 C0.67 1.34 0.34 0.68 0 0 Z " fill="#0097FE" transform="translate(282,133)"/>
<path d="M0 0 C3 1 3 1 3 1 Z " fill="#0000FF" transform="translate(277,111)"/>
<path d="M0 0 C3 1 3 1 3 1 Z " fill="#0000FF" transform="translate(272,55)"/>
<path d="M0 0 C2 1 2 1 2 1 Z " fill="#000000" transform="translate(51,458)"/>
<path d="M0 0 C2 1 2 1 2 1 Z " fill="#0000FF" transform="translate(108,444)"/>
<path d="M0 0 C2 1 2 1 2 1 Z " fill="#0000FF" transform="translate(117,442)"/>
<path d="M0 0 C2 1 2 1 2 1 Z " fill="#0000BF" transform="translate(120,441)"/>
<path d="" fill="#00FFFF" transform="translate(0,0)"/>
<path d="M0 0 C2 1 2 1 2 1 Z " fill="#00FFFF" transform="translate(267,398)"/>
<path d="" fill="#0000FF" transform="translate(0,0)"/>
<path d="M0 0 C2 1 2 1 2 1 Z " fill="#00BFBF" transform="translate(352,331)"/>
<path d="M0 0 C2 1 2 1 2 1 Z " fill="#003FBF" transform="translate(355,329)"/>
<path d="" fill="#007F7F" transform="translate(0,0)"/>
<path d="" fill="#007F7F" transform="translate(0,0)"/>
<path d="M0 0 C2 1 2 1 2 1 Z " fill="#0000FF" transform="translate(78,294)"/>
<path d="" fill="#007F7F" transform="translate(0,0)"/>
<path d="M0 0 C2 1 2 1 2 1 Z " fill="#0000FF" transform="translate(66,283)"/>
<path d="M0 0 C2 1 2 1 2 1 Z " fill="#007FFF" transform="translate(157,281)"/>
<path d="M0 0 C2 1 2 1 2 1 Z " fill="#0000FF" transform="translate(268,273)"/>
<path d="" fill="#003FFF" transform="translate(0,0)"/>
<path d="M0 0 C2 1 2 1 2 1 Z " fill="#0000FF" transform="translate(75,215)"/>
<path d="M0 0 C2 1 2 1 2 1 Z " fill="#0000FF" transform="translate(32,215)"/>
<path d="M0 0 C2 1 2 1 2 1 Z " fill="#0000FF" transform="translate(35,213)"/>
<path d="M0 0 C2 1 2 1 2 1 Z " fill="#0000FF" transform="translate(40,211)"/>
<path d="M0 0 C2 1 2 1 2 1 Z " fill="#003FFF" transform="translate(240,201)"/>
<path d="M0 0 C2 1 2 1 2 1 Z " fill="#003FFF" transform="translate(238,200)"/>
<path d="" fill="#00007F" transform="translate(0,0)"/>
<path d="" fill="#0000FF" transform="translate(0,0)"/>
<path d="M0 0 C2 1 2 1 2 1 Z " fill="#0072FF" transform="translate(100,155)"/>
<path d="" fill="#0000FF" transform="translate(0,0)"/>
<path d="" fill="#0000FF" transform="translate(0,0)"/>
<path d="" fill="#0000FF" transform="translate(0,0)"/>
<path d="" fill="#0000FF" transform="translate(0,0)"/>
<path d="" fill="#007FFF" transform="translate(0,0)"/>
<path d="" fill="#007F7F" transform="translate(0,0)"/>
<path d="" fill="#00007F" transform="translate(0,0)"/>
<path d="M0 0 C2 1 2 1 2 1 Z " fill="#0000FF" transform="translate(236,119)"/>
<path d="M0 0 C2 1 2 1 2 1 Z " fill="#0000FF" transform="translate(241,116)"/>
<path d="" fill="#0000FF" transform="translate(0,0)"/>
<path d="" fill="#0000FF" transform="translate(0,0)"/>
<path d="" fill="#0000FF" transform="translate(0,0)"/>
<path d="" fill="#0000FF" transform="translate(0,0)"/>
<path d="" fill="#0000FF" transform="translate(0,0)"/>
<path d="" fill="#0000FF" transform="translate(0,0)"/>
<path d="" fill="#0000FF" transform="translate(0,0)"/>
<path d="" fill="#0000FF" transform="translate(0,0)"/>
<path d="" fill="#00FFFF" transform="translate(0,0)"/>
<path d="" fill="#00FFFF" transform="translate(0,0)"/>
<path d="" fill="#00FFFF" transform="translate(0,0)"/>
<path d="" fill="#00FFFF" transform="translate(0,0)"/>
<path d="" fill="#0000FF" transform="translate(0,0)"/>
<path d="" fill="#00BFBF" transform="translate(0,0)"/>
<path d="" fill="#00AAD4" transform="translate(0,0)"/>
<path d="" fill="#00B6B6" transform="translate(0,0)"/>
<path d="" fill="#00FFFF" transform="translate(0,0)"/>
<path d="" fill="#00FFFF" transform="translate(0,0)"/>
<path d="" fill="#00CCFF" transform="translate(0,0)"/>
<path d="" fill="#00AAFF" transform="translate(0,0)"/>
<path d="" fill="#0099CC" transform="translate(0,0)"/>
<path d="" fill="#00FFFF" transform="translate(0,0)"/>
<path d="" fill="#00FFFF" transform="translate(0,0)"/>
<path d="" fill="#00FFFF" transform="translate(0,0)"/>
<path d="" fill="#00FFFF" transform="translate(0,0)"/>
<path d="" fill="#00FFFF" transform="translate(0,0)"/>
<path d="" fill="#00FFFF" transform="translate(0,0)"/>
<path d="" fill="#007FFF" transform="translate(0,0)"/>
<path d="" fill="#007FFF" transform="translate(0,0)"/>
<path d="" fill="#007FFF" transform="translate(0,0)"/>
<path d="" fill="#00FFFF" transform="translate(0,0)"/>
<path d="" fill="#00FFFF" transform="translate(0,0)"/>
<path d="" fill="#00FFFF" transform="translate(0,0)"/>
<path d="" fill="#00FFFF" transform="translate(0,0)"/>
<path d="" fill="#00FFFF" transform="translate(0,0)"/>
<path d="" fill="#0000FF" transform="translate(0,0)"/>
<path d="" fill="#0000FF" transform="translate(0,0)"/>
<path d="" fill="#0000FF" transform="translate(0,0)"/>
<path d="" fill="#000000" transform="translate(0,0)"/>
<path d="" fill="#0000FF" transform="translate(0,0)"/>
<path d="" fill="#00FFFF" transform="translate(0,0)"/>
<path d="" fill="#0000FF" transform="translate(0,0)"/>
<path d="" fill="#0000FF" transform="translate(0,0)"/>
<path d="" fill="#000000" transform="translate(0,0)"/>
<path d="" fill="#0000FF" transform="translate(0,0)"/>
<path d="" fill="#00FF00" transform="translate(0,0)"/>
<path d="" fill="#0000FF" transform="translate(0,0)"/>
<path d="" fill="#007FFF" transform="translate(0,0)"/>
<path d="" fill="#000000" transform="translate(0,0)"/>
<path d="" fill="#0000FF" transform="translate(0,0)"/>
<path d="" fill="#0000FF" transform="translate(0,0)"/>
<path d="" fill="#0000FF" transform="translate(0,0)"/>
<path d="" fill="#0000FF" transform="translate(0,0)"/>
<path d="" fill="#007FFF" transform="translate(0,0)"/>
<path d="" fill="#0000FF" transform="translate(0,0)"/>
<path d="" fill="#0000FF" transform="translate(0,0)"/>
<path d="" fill="#0000FF" transform="translate(0,0)"/>
<path d="" fill="#007FFF" transform="translate(0,0)"/>
<path d="" fill="#0000FF" transform="translate(0,0)"/>
<path d="" fill="#0000FF" transform="translate(0,0)"/>
<path d="" fill="#0000FF" transform="translate(0,0)"/>
<path d="" fill="#0000FF" transform="translate(0,0)"/>
<path d="" fill="#0000FF" transform="translate(0,0)"/>
<path d="" fill="#0000FF" transform="translate(0,0)"/>
<path d="" fill="#0000FF" transform="translate(0,0)"/>
<path d="" fill="#003FBF" transform="translate(0,0)"/>
<path d="" fill="#0000FF" transform="translate(0,0)"/>
<path d="" fill="#0000FF" transform="translate(0,0)"/>
<path d="" fill="#0000FF" transform="translate(0,0)"/>
<path d="" fill="#0000FF" transform="translate(0,0)"/>
<path d="" fill="#0000FF" transform="translate(0,0)"/>
<path d="" fill="#0000FF" transform="translate(0,0)"/>
<path d="" fill="#0000FF" transform="translate(0,0)"/>
<path d="" fill="#0000FF" transform="translate(0,0)"/>
<path d="" fill="#0000FF" transform="translate(0,0)"/>
<path d="" fill="#0000FF" transform="translate(0,0)"/>
<path d="" fill="#0000FF" transform="translate(0,0)"/>
<path d="" fill="#0000FF" transform="translate(0,0)"/>
<path d="" fill="#0000FF" transform="translate(0,0)"/>
<path d="" fill="#0000FF" transform="translate(0,0)"/>
<path d="" fill="#0000FF" transform="translate(0,0)"/>
<path d="" fill="#0000FF" transform="translate(0,0)"/>
<path d="" fill="#0000FF" transform="translate(0,0)"/>
<path d="" fill="#0000FF" transform="translate(0,0)"/>
<path d="" fill="#0000FF" transform="translate(0,0)"/>
<path d="" fill="#0000FF" transform="translate(0,0)"/>
<path d="" fill="#0000FF" transform="translate(0,0)"/>
<path d="" fill="#0000FF" transform="translate(0,0)"/>
<path d="" fill="#0000FF" transform="translate(0,0)"/>
<path d="" fill="#0000FF" transform="translate(0,0)"/>
<path d="" fill="#0000FF" transform="translate(0,0)"/>
<path d="" fill="#0000FF" transform="translate(0,0)"/>
<path d="" fill="#0000FF" transform="translate(0,0)"/>
<path d="" fill="#0000FF" transform="translate(0,0)"/>
<path d="" fill="#002AD4" transform="translate(0,0)"/>
<path d="" fill="#0055FF" transform="translate(0,0)"/>
<path d="" fill="#0066FF" transform="translate(0,0)"/>
<path d="" fill="#0000FF" transform="translate(0,0)"/>
<path d="" fill="#0000FF" transform="translate(0,0)"/>
<path d="" fill="#0000FF" transform="translate(0,0)"/>
<path d="" fill="#0000FF" transform="translate(0,0)"/>
<path d="" fill="#0000FF" transform="translate(0,0)"/>
<path d="" fill="#0000FF" transform="translate(0,0)"/>
<path d="" fill="#0000FF" transform="translate(0,0)"/>
<path d="" fill="#0000FF" transform="translate(0,0)"/>
<path d="" fill="#0000FF" transform="translate(0,0)"/>
<path d="" fill="#007FFF" transform="translate(0,0)"/>
<path d="" fill="#007FFF" transform="translate(0,0)"/>
<path d="" fill="#0000FF" transform="translate(0,0)"/>
<path d="" fill="#0055FF" transform="translate(0,0)"/>
<path d="" fill="#0000FF" transform="translate(0,0)"/>
<path d="" fill="#0033CC" transform="translate(0,0)"/>
<path d="" fill="#003FBF" transform="translate(0,0)"/>
<path d="" fill="#0000FF" transform="translate(0,0)"/>
<path d="" fill="#0000FF" transform="translate(0,0)"/>
<path d="" fill="#0000FF" transform="translate(0,0)"/>
<path d="" fill="#0000FF" transform="translate(0,0)"/>
<path d="" fill="#0000FF" transform="translate(0,0)"/>
<path d="" fill="#0000FF" transform="translate(0,0)"/>
<path d="" fill="#00FFFF" transform="translate(0,0)"/>
<path d="" fill="#0000FF" transform="translate(0,0)"/>
</svg>
